<svg width="53" height="53" viewBox="0 0 53 53" fill="none" xmlns="http://www.w3.org/2000/svg">
<path d="M53 26.5C53 41.1355 41.1355 53 26.5 53C11.8645 53 0 41.1355 0 26.5C0 11.8645 11.8645 0 26.5 0C41.1355 0 53 11.8645 53 26.5Z" fill="#D9D9D9"/>
<path d="M26.6689 30.203L22.6411 34.2308C22.1534 34.7015 21.5022 34.9645 20.8244 34.9645C20.1467 34.9645 19.4954 34.7015 19.0077 34.2308C18.7686 33.9926 18.5788 33.7095 18.4493 33.3977C18.3198 33.0859 18.2531 32.7517 18.2531 32.4141C18.2531 32.0765 18.3198 31.7423 18.4493 31.4305C18.5788 31.1188 18.7686 30.8357 19.0077 30.5974L23.0356 26.5696C23.2311 26.3741 23.3409 26.109 23.3409 25.8325C23.3409 25.5561 23.2311 25.291 23.0356 25.0955C22.8401 24.9 22.575 24.7902 22.2985 24.7902C22.0221 24.7902 21.757 24.9 21.5615 25.0955L17.5336 29.1337C16.7222 30.0169 16.2833 31.1795 16.3087 32.3786C16.3341 33.5777 16.8218 34.7206 17.6699 35.5687C18.5179 36.4168 19.6609 36.9044 20.86 36.9298C22.0591 36.9552 23.2216 36.5163 24.1048 35.7049L28.1431 31.6771C28.3385 31.4816 28.4484 31.2165 28.4484 30.94C28.4484 30.6636 28.3385 30.3984 28.1431 30.203C27.9476 30.0075 27.6825 29.8977 27.406 29.8977C27.1296 29.8977 26.8644 30.0075 26.6689 30.203ZM35.5759 17.6626C34.7026 16.7948 33.5215 16.3077 32.2903 16.3077C31.0591 16.3077 29.878 16.7948 29.0047 17.6626L24.9665 21.6905C24.8697 21.7873 24.7929 21.9022 24.7405 22.0287C24.6881 22.1551 24.6612 22.2907 24.6612 22.4275C24.6612 22.5644 24.6881 22.7 24.7405 22.8264C24.7929 22.9529 24.8697 23.0678 24.9665 23.1646C25.0632 23.2614 25.1782 23.3382 25.3046 23.3906C25.4311 23.4429 25.5666 23.4699 25.7035 23.4699C25.8404 23.4699 25.9759 23.4429 26.1024 23.3906C26.2289 23.3382 26.3438 23.2614 26.4406 23.1646L30.4684 19.1367C30.9561 18.6661 31.6074 18.4031 32.2851 18.4031C32.9628 18.4031 33.6141 18.6661 34.1018 19.1367C34.341 19.375 34.5307 19.6581 34.6602 19.9698C34.7897 20.2816 34.8564 20.6159 34.8564 20.9534C34.8564 21.291 34.7897 21.6253 34.6602 21.937C34.5307 22.2488 34.341 22.5319 34.1018 22.7701L30.0739 26.798C29.9766 26.8945 29.8994 27.0093 29.8467 27.1358C29.794 27.2623 29.7669 27.398 29.7669 27.535C29.7669 27.6721 29.794 27.8078 29.8467 27.9343C29.8994 28.0608 29.9766 28.1756 30.0739 28.2721C30.1704 28.3694 30.2853 28.4466 30.4118 28.4993C30.5383 28.552 30.6739 28.5791 30.811 28.5791C30.948 28.5791 31.0837 28.552 31.2102 28.4993C31.3367 28.4466 31.4515 28.3694 31.548 28.2721L35.5759 24.2338C36.4437 23.3606 36.9308 22.1794 36.9308 20.9482C36.9308 19.7171 36.4437 18.5359 35.5759 17.6626ZM23.264 29.9746C23.361 30.0708 23.476 30.1469 23.6025 30.1986C23.729 30.2502 23.8644 30.2764 24.001 30.2756C24.1376 30.2764 24.2731 30.2502 24.3996 30.1986C24.526 30.1469 24.6411 30.0708 24.7381 29.9746L29.8456 24.8671C30.041 24.6716 30.1509 24.4065 30.1509 24.13C30.1509 23.8536 30.041 23.5885 29.8456 23.393C29.6501 23.1975 29.3849 23.0877 29.1085 23.0877C28.8321 23.0877 28.5669 23.1975 28.3714 23.393L23.264 28.5005C23.1667 28.597 23.0894 28.7118 23.0367 28.8383C22.984 28.9648 22.9569 29.1005 22.9569 29.2375C22.9569 29.3746 22.984 29.5102 23.0367 29.6367C23.0894 29.7632 23.1667 29.8781 23.264 29.9746Z" fill="#86898E"/>
</svg>
