<svg width="20" height="19" viewBox="0 0 20 19" fill="none" xmlns="http://www.w3.org/2000/svg">
<path fill-rule="evenodd" clip-rule="evenodd" d="M0.625 0.686747C0.625 0.307467 0.943997 0 1.3375 0H3.2375C4.68034 0 5.85 1.12738 5.85 2.51807V2.51809H15.8248C17.68 2.51809 19.2246 3.79943 19.5581 5.494H4.4248V2.51809H4.425V2.51807C4.425 1.88594 3.89334 1.37349 3.2375 1.37349H1.3375C0.943997 1.37349 0.625 1.06603 0.625 0.686747ZM7.7502 19C8.5372 19 9.1752 18.3851 9.1752 17.6265C9.1752 16.868 8.5372 16.253 7.7502 16.253C6.96319 16.253 6.3252 16.868 6.3252 17.6265C6.3252 18.3851 6.96319 19 7.7502 19ZM16.3 19C17.087 19 17.725 18.3851 17.725 17.6265C17.725 16.868 17.087 16.253 16.3 16.253C15.513 16.253 14.875 16.868 14.875 17.6265C14.875 18.3851 15.513 19 16.3 19ZM4.4248 6.86749H19.6248V10.7591C19.6248 12.7819 17.9235 14.4217 15.8248 14.4217H8.2248C6.12612 14.4217 4.4248 12.7819 4.4248 10.7591V6.86749Z" fill="#F35C6E"/>
</svg>
