<svg width="30" height="30" viewBox="0 0 30 30" fill="none" xmlns="http://www.w3.org/2000/svg">
<path d="M13.5999 26.8998C13.5999 28.0596 12.6597 28.9998 11.4999 28.9998C10.3401 28.9998 9.3999 28.0596 9.3999 26.8998C9.3999 25.74 10.3401 24.7998 11.4999 24.7998C12.6597 24.7998 13.5999 25.74 13.5999 26.8998Z" stroke="#212121" stroke-width="1.5"/>
<path d="M26.2 26.8998C26.2 28.0596 25.2598 28.9998 24.1 28.9998C22.9402 28.9998 22 28.0596 22 26.8998C22 25.74 22.9402 24.7998 24.1 24.7998C25.2598 24.7998 26.2 25.74 26.2 26.8998Z" stroke="#212121" stroke-width="1.5"/>
<path d="M6.6 3.8H23.4C26.4928 3.8 29 6.30721 29 9.4V16.4C29 19.4928 26.4928 22 23.4 22H12.2C9.10721 22 6.6 19.4928 6.6 16.4V3.8ZM6.6 3.8C6.6 2.2536 5.3464 1 3.8 1H1M6.6 9.4H28.3" stroke="#212121" stroke-width="1.5" stroke-linecap="round" stroke-linejoin="round"/>
</svg>
