<svg width="22" height="19" viewBox="0 0 22 19" fill="none" xmlns="http://www.w3.org/2000/svg">
<path fill-rule="evenodd" clip-rule="evenodd" d="M9.95 0H12.05C17.2691 0 21.5 4.23091 21.5 9.45C21.5 14.6691 17.2691 18.9 12.05 18.9H4.7C2.3804 18.9 0.5 17.0196 0.5 14.7V9.45C0.5 4.23091 4.73091 0 9.95 0ZM7.37451 11.0114C7.07705 10.6941 6.57869 10.678 6.2614 10.9755C5.94411 11.273 5.92803 11.7713 6.22549 12.0886C7.64399 13.6017 9.28296 14.4375 11 14.4375C12.717 14.4375 14.356 13.6017 15.7745 12.0886C16.072 11.7713 16.0559 11.273 15.7386 10.9755C15.4213 10.678 14.923 10.6941 14.6255 11.0114C13.419 12.2983 12.1705 12.8625 11 12.8625C9.82955 12.8625 8.58101 12.2983 7.37451 11.0114Z" fill="white"/>
</svg>
