<svg width="20" height="20" viewBox="0 0 20 20" fill="none" xmlns="http://www.w3.org/2000/svg">
<path fill-rule="evenodd" clip-rule="evenodd" d="M14.1665 4.16663C15.0832 4.16663 15.8332 4.91663 15.8332 5.83329V8.04163C15.8332 8.41663 15.7082 8.78329 15.4665 9.08329L12.5665 12.7083C12.2498 13.1 11.7748 13.3333 11.2665 13.3333H8.33317C8.33317 14.7166 7.2165 15.8333 5.83317 15.8333C4.44984 15.8333 3.33317 14.7166 3.33317 13.3333H2.49984C2.0415 13.3333 1.6665 12.9583 1.6665 12.5V10.8333C1.6665 8.99163 3.15817 7.49996 4.99984 7.49996H7.49984C7.95817 7.49996 8.33317 7.87496 8.33317 8.33329V11.6666H11.2665L14.1665 8.04163V5.83329H12.4998C12.0415 5.83329 11.6665 5.45829 11.6665 4.99996C11.6665 4.54163 12.0415 4.16663 12.4998 4.16663H14.1665ZM4.99984 13.3333C4.99984 13.7916 5.37484 14.1666 5.83317 14.1666C6.2915 14.1666 6.6665 13.7916 6.6665 13.3333H4.99984ZM7.49984 4.99996H4.99984C4.5415 4.99996 4.1665 5.37496 4.1665 5.83329C4.1665 6.29163 4.5415 6.66663 4.99984 6.66663H7.49984C7.95817 6.66663 8.33317 6.29163 8.33317 5.83329C8.33317 5.37496 7.95817 4.99996 7.49984 4.99996ZM13.3332 13.3333C13.3332 11.95 14.4498 10.8333 15.8332 10.8333C17.2165 10.8333 18.3332 11.95 18.3332 13.3333C18.3332 14.7166 17.2165 15.8333 15.8332 15.8333C14.4498 15.8333 13.3332 14.7166 13.3332 13.3333ZM14.9998 13.3333C14.9998 13.7916 15.3748 14.1666 15.8332 14.1666C16.2915 14.1666 16.6665 13.7916 16.6665 13.3333C16.6665 12.875 16.2915 12.5 15.8332 12.5C15.3748 12.5 14.9998 12.875 14.9998 13.3333Z" fill="#F6706C"/>
</svg>
