<svg width="22" height="17" viewBox="0 0 22 17" fill="none" xmlns="http://www.w3.org/2000/svg">
<path d="M11.0379 3.40625C11.9424 3.40625 12.6785 2.67013 12.6785 1.76562C12.6785 0.861125 11.9424 0.125 11.0379 0.125C10.1334 0.125 9.39725 0.861125 9.39725 1.76562C9.39725 2.67013 10.1334 3.40625 11.0379 3.40625ZM11.0379 0.59375C11.684 0.59375 12.2097 1.1195 12.2097 1.76562C12.2097 2.41175 11.684 2.9375 11.0379 2.9375C10.3917 2.9375 9.866 2.41175 9.866 1.76562C9.866 1.1195 10.3917 0.59375 11.0379 0.59375ZM0.5 13.25C0.62 14.8209 1.93662 16.0625 3.53787 16.0625H18.5379C20.1391 16.0625 21.4557 14.8209 21.5758 13.25H0.5Z" fill="#D65C68"/>
<path d="M1.43152 12.7806H3.30764C3.38939 10.1223 4.85339 7.66227 7.17052 6.31865C7.22418 6.28914 7.28725 6.2818 7.34625 6.2982C7.40525 6.31461 7.45548 6.35345 7.48621 6.40642C7.51693 6.45939 7.5257 6.52228 7.51065 6.58164C7.49559 6.64099 7.4579 6.6921 7.40564 6.72402C5.23252 7.98365 3.85777 10.2884 3.77639 12.7803H20.6446C20.5198 7.58952 16.2586 3.40527 11.0383 3.40527C5.81789 3.40527 1.55639 7.58952 1.43152 12.7806ZM11.0379 5.28065C12.0403 5.28065 13.016 5.4704 13.9385 5.84502C13.9676 5.85616 13.9942 5.873 14.0168 5.89455C14.0393 5.9161 14.0573 5.94192 14.0697 5.97052C14.0822 5.99911 14.0888 6.0299 14.0891 6.06107C14.0895 6.09225 14.0837 6.12318 14.0719 6.15207C14.0602 6.18096 14.0428 6.20722 14.0209 6.22931C13.9989 6.2514 13.9727 6.26888 13.9438 6.28072C13.915 6.29257 13.8841 6.29854 13.8529 6.29829C13.8217 6.29804 13.7909 6.29158 13.7623 6.27927C12.8971 5.92779 11.9718 5.74783 11.0379 5.7494C10.9757 5.7494 10.9161 5.7247 10.8722 5.68075C10.8282 5.6368 10.8035 5.57718 10.8035 5.51502C10.8035 5.45286 10.8282 5.39325 10.8722 5.3493C10.9161 5.30534 10.9757 5.28065 11.0379 5.28065Z" fill="#D65C68"/>
</svg>
