<svg width="33" height="25" viewBox="0 0 33 25" fill="none" xmlns="http://www.w3.org/2000/svg">
<path d="M16.5584 5.41797C17.9528 5.41797 19.0877 4.28311 19.0877 2.88867C19.0877 1.49423 17.9528 0.359375 16.5584 0.359375C15.164 0.359375 14.0291 1.49423 14.0291 2.88867C14.0291 4.28311 15.164 5.41797 16.5584 5.41797ZM16.5584 1.08203C17.5545 1.08203 18.365 1.89256 18.365 2.88867C18.365 3.88478 17.5545 4.69531 16.5584 4.69531C15.5623 4.69531 14.7517 3.88478 14.7517 2.88867C14.7517 1.89256 15.5623 1.08203 16.5584 1.08203ZM0.3125 20.5938C0.4975 23.0155 2.5273 24.9297 4.99589 24.9297H28.1209C30.5895 24.9297 32.6193 23.0155 32.8043 20.5938H0.3125Z" fill="white"/>
<path d="M1.7486 19.8707H4.64096C4.76699 15.7724 7.02399 11.9799 10.5962 9.90845C10.6789 9.86295 10.7762 9.85164 10.8671 9.87693C10.9581 9.90222 11.0355 9.9621 11.0829 10.0438C11.1303 10.1254 11.1438 10.2224 11.1206 10.3139C11.0974 10.4054 11.0393 10.4842 10.9587 10.5334C7.60847 12.4753 5.48906 16.0285 5.36361 19.8701H31.3688C31.1763 11.8677 24.6071 5.41699 16.559 5.41699C8.51092 5.41699 1.94111 11.8677 1.7486 19.8707ZM16.5584 8.3082C18.1038 8.3082 19.608 8.60073 21.0302 9.17827C21.0751 9.19545 21.1161 9.2214 21.1509 9.25462C21.1856 9.28784 21.2134 9.32766 21.2325 9.37174C21.2517 9.41583 21.2618 9.46329 21.2624 9.51135C21.263 9.55941 21.254 9.6071 21.2359 9.65164C21.2178 9.69617 21.1911 9.73665 21.1572 9.77071C21.1232 9.80477 21.0829 9.83172 21.0384 9.84998C20.9939 9.86824 20.9463 9.87745 20.8982 9.87707C20.8502 9.87668 20.8027 9.86671 20.7585 9.84774C19.4246 9.30587 17.9982 9.02843 16.5584 9.03085C16.4626 9.03085 16.3707 8.99278 16.3029 8.92502C16.2352 8.85726 16.1971 8.76535 16.1971 8.66952C16.1971 8.57369 16.2352 8.48179 16.3029 8.41403C16.3707 8.34626 16.4626 8.3082 16.5584 8.3082Z" fill="white"/>
</svg>
