<svg width="24" height="24" viewBox="0 0 24 24" fill="none" xmlns="http://www.w3.org/2000/svg">
<path d="M9.13223 23.2499C9.00657 23.2501 8.88241 23.2226 8.76847 23.1696C8.65454 23.1166 8.55359 23.0393 8.47273 22.9431C8.39187 22.8469 8.33305 22.7342 8.30041 22.6129C8.26777 22.4915 8.2621 22.3645 8.28379 22.2407V22.2356L10.0001 14L4.50004 14.9999C4.35844 14.9999 4.21974 14.9598 4.09998 14.8843C3.98021 14.8087 3.88429 14.7008 3.82328 14.573C3.76228 14.4453 3.73871 14.3028 3.75528 14.1622C3.77184 14.0216 3.82789 13.8885 3.91692 13.7784L14.1905 1.07807C14.3075 0.929628 14.4698 0.823573 14.6527 0.776122C14.8356 0.728671 15.029 0.742437 15.2034 0.815315C15.3778 0.888192 15.5234 1.01617 15.6182 1.17968C15.7129 1.34318 15.7515 1.53322 15.728 1.72073C15.728 1.73479 15.7243 1.74838 15.7219 1.76244L14.1905 9.42685L19.5 8.99994C19.6416 8.99996 19.7803 9.04006 19.9001 9.11561C20.0199 9.19116 20.1158 9.29906 20.1768 9.42685C20.2378 9.55464 20.2614 9.69708 20.2448 9.83771C20.2282 9.97834 20.1722 10.1114 20.0832 10.2215L9.80817 22.9218C9.72743 23.0238 9.62472 23.1063 9.50769 23.1631C9.39066 23.2199 9.26232 23.2496 9.13223 23.2499Z" fill="white"/>
</svg>
