<svg width="182" height="86" viewBox="0 0 182 86" fill="none" xmlns="http://www.w3.org/2000/svg">
<path d="M25.9445 19.68V27.168H12.4085V33.12H22.3925V40.272H12.4085V53.52H3.0005V19.68H25.9445ZM42.4348 53.856C39.7468 53.856 37.3308 53.296 35.1868 52.176C33.0748 51.056 31.4108 49.456 30.1948 47.376C28.9788 45.296 28.3708 42.848 28.3708 40.032C28.3708 37.248 28.9788 34.816 30.1948 32.736C31.4428 30.656 33.1228 29.056 35.2348 27.936C37.3788 26.816 39.7948 26.256 42.4828 26.256C45.1708 26.256 47.5708 26.816 49.6828 27.936C51.8268 29.056 53.5068 30.656 54.7228 32.736C55.9708 34.816 56.5948 37.248 56.5948 40.032C56.5948 42.816 55.9708 45.264 54.7228 47.376C53.5068 49.456 51.8268 51.056 49.6828 52.176C47.5388 53.296 45.1228 53.856 42.4348 53.856ZM42.4348 45.696C43.7468 45.696 44.8348 45.216 45.6988 44.256C46.5948 43.264 47.0428 41.856 47.0428 40.032C47.0428 38.208 46.5948 36.816 45.6988 35.856C44.8348 34.896 43.7628 34.416 42.4828 34.416C41.2028 34.416 40.1308 34.896 39.2668 35.856C38.4028 36.816 37.9708 38.208 37.9708 40.032C37.9708 41.888 38.3868 43.296 39.2188 44.256C40.0508 45.216 41.1228 45.696 42.4348 45.696ZM72.9504 53.856C70.2624 53.856 67.8464 53.296 65.7024 52.176C63.5904 51.056 61.9264 49.456 60.7104 47.376C59.4944 45.296 58.8864 42.848 58.8864 40.032C58.8864 37.248 59.4944 34.816 60.7104 32.736C61.9584 30.656 63.6384 29.056 65.7504 27.936C67.8944 26.816 70.3104 26.256 72.9984 26.256C75.6864 26.256 78.0864 26.816 80.1984 27.936C82.3424 29.056 84.0224 30.656 85.2384 32.736C86.4864 34.816 87.1104 37.248 87.1104 40.032C87.1104 42.816 86.4864 45.264 85.2384 47.376C84.0224 49.456 82.3424 51.056 80.1984 52.176C78.0544 53.296 75.6384 53.856 72.9504 53.856ZM72.9504 45.696C74.2624 45.696 75.3504 45.216 76.2144 44.256C77.1104 43.264 77.5584 41.856 77.5584 40.032C77.5584 38.208 77.1104 36.816 76.2144 35.856C75.3504 34.896 74.2784 34.416 72.9984 34.416C71.7184 34.416 70.6464 34.896 69.7824 35.856C68.9184 36.816 68.4864 38.208 68.4864 40.032C68.4864 41.888 68.9024 43.296 69.7344 44.256C70.5664 45.216 71.6384 45.696 72.9504 45.696ZM89.402 40.032C89.402 37.248 89.898 34.816 90.89 32.736C91.914 30.656 93.306 29.056 95.066 27.936C96.826 26.816 98.778 26.256 100.922 26.256C102.65 26.256 104.186 26.624 105.53 27.36C106.906 28.064 107.978 29.04 108.746 30.288V18H118.202V53.52H108.746V49.776C108.01 51.024 106.97 52.016 105.626 52.752C104.282 53.488 102.698 53.856 100.874 53.856C98.73 53.856 96.778 53.296 95.018 52.176C93.29 51.056 91.914 49.456 90.89 47.376C89.898 45.264 89.402 42.816 89.402 40.032ZM108.794 40.032C108.794 38.304 108.314 36.944 107.354 35.952C106.426 34.96 105.274 34.464 103.898 34.464C102.49 34.464 101.322 34.96 100.394 35.952C99.466 36.912 99.002 38.272 99.002 40.032C99.002 41.76 99.466 43.136 100.394 44.16C101.322 45.152 102.49 45.648 103.898 45.648C105.274 45.648 106.426 45.152 107.354 44.16C108.314 43.168 108.794 41.792 108.794 40.032ZM149.291 39.744C149.291 40.48 149.243 41.216 149.147 41.952H131.339C131.435 43.424 131.835 44.528 132.539 45.264C133.275 45.968 134.203 46.32 135.323 46.32C136.891 46.32 138.011 45.616 138.683 44.208H148.715C148.299 46.064 147.483 47.728 146.267 49.2C145.083 50.64 143.579 51.776 141.755 52.608C139.931 53.44 137.915 53.856 135.707 53.856C133.051 53.856 130.683 53.296 128.603 52.176C126.555 51.056 124.939 49.456 123.755 47.376C122.603 45.296 122.027 42.848 122.027 40.032C122.027 37.216 122.603 34.784 123.755 32.736C124.907 30.656 126.507 29.056 128.555 27.936C130.635 26.816 133.019 26.256 135.707 26.256C138.363 26.256 140.715 26.8 142.763 27.888C144.811 28.976 146.411 30.544 147.563 32.592C148.715 34.608 149.291 36.992 149.291 39.744ZM139.691 37.392C139.691 36.24 139.307 35.344 138.539 34.704C137.771 34.032 136.811 33.696 135.659 33.696C134.507 33.696 133.563 34.016 132.827 34.656C132.091 35.264 131.611 36.176 131.387 37.392H139.691ZM165.669 53.856C162.981 53.856 160.565 53.296 158.421 52.176C156.309 51.056 154.645 49.456 153.429 47.376C152.213 45.296 151.605 42.848 151.605 40.032C151.605 37.248 152.213 34.816 153.429 32.736C154.677 30.656 156.357 29.056 158.469 27.936C160.613 26.816 163.029 26.256 165.717 26.256C168.405 26.256 170.805 26.816 172.917 27.936C175.061 29.056 176.741 30.656 177.957 32.736C179.205 34.816 179.829 37.248 179.829 40.032C179.829 42.816 179.205 45.264 177.957 47.376C176.741 49.456 175.061 51.056 172.917 52.176C170.773 53.296 168.357 53.856 165.669 53.856ZM165.669 45.696C166.981 45.696 168.069 45.216 168.933 44.256C169.829 43.264 170.277 41.856 170.277 40.032C170.277 38.208 169.829 36.816 168.933 35.856C168.069 34.896 166.997 34.416 165.717 34.416C164.437 34.416 163.365 34.896 162.501 35.856C161.637 36.816 161.205 38.208 161.205 40.032C161.205 41.888 161.621 43.296 162.453 44.256C163.285 45.216 164.357 45.696 165.669 45.696Z" fill="url(#paint0_linear_60_2370)"/>
<path d="M42 55C50.2843 55 57 48.2843 57 40C57 31.7157 50.2843 25 42 25C33.7157 25 27 31.7157 27 40C27 48.2843 33.7157 55 42 55Z" fill="#4C679E"/>
<path d="M73 55C81.2843 55 88 48.2843 88 40C88 31.7157 81.2843 25 73 25C64.7157 25 58 31.7157 58 40C58 48.2843 64.7157 55 73 55Z" fill="#4C679E"/>
<path d="M80.4517 69.7161C79.7324 69.3426 78.8793 69.2323 78.0764 69.419C77.2735 69.6057 76.5877 70.064 76.1611 70.7005C71.9291 76.531 64.7531 80.1634 56.9414 80.435C55.8875 80.4011 54.8421 80.2992 53.8133 80.1295V70.726C53.8217 68.146 52.6675 65.6763 50.6101 63.8516C48.5526 62.0269 45.7675 61 42.8485 61C36.2412 61 30.0354 66.8814 32.5863 73.1787C35.8565 81.2582 48.3602 86.1976 56.9414 85.9939C61.8843 85.8751 66.7269 84.6785 71.0258 82.4973C75.3248 80.3247 78.9463 77.2355 81.5725 73.5182C81.9906 72.8817 82.1077 72.1263 81.8986 71.4219C81.6895 70.692 81.171 70.081 80.4517 69.7161Z" fill="url(#paint1_linear_60_2370)"/>
<defs>
<linearGradient id="paint0_linear_60_2370" x1="171.706" y1="14.5825" x2="-1.53942" y2="23.6545" gradientUnits="userSpaceOnUse">
<stop stop-color="#F7746C"/>
<stop offset="1" stop-color="#F35C6E"/>
</linearGradient>
<linearGradient id="paint1_linear_60_2370" x1="79.3464" y1="65.8828" x2="31.4403" y2="67.8786" gradientUnits="userSpaceOnUse">
<stop stop-color="#F7746C"/>
<stop offset="1" stop-color="#F35C6E"/>
</linearGradient>
</defs>
</svg>
