<svg width="111" height="111" viewBox="0 0 111 111" fill="none" xmlns="http://www.w3.org/2000/svg">
<path d="M21.57 0.5H89.2C100.834 0.5 110.26 9.92601 110.27 21.5704V89.2C110.27 100.834 100.834 110.27 89.2 110.27H21.57C9.93615 110.27 0.5 100.834 0.5 89.2V21.57C0.5 9.93615 9.93615 0.5 21.57 0.5Z" fill="white" stroke="#D1D1D6"/>
<path d="M34.9999 57.0699C45.2503 57.0699 53.5599 48.7604 53.5599 38.5099C53.5599 28.2595 45.2503 19.95 34.9999 19.95C24.7495 19.95 16.4399 28.2595 16.4399 38.5099C16.4399 48.7604 24.7495 57.0699 34.9999 57.0699Z" fill="#4C679E"/>
<path d="M75.7602 57.0699C86.0106 57.0699 94.3202 48.7604 94.3202 38.5099C94.3202 28.2595 86.0106 19.95 75.7602 19.95C65.5098 19.95 57.2002 28.2595 57.2002 38.5099C57.2002 48.7604 65.5098 57.0699 75.7602 57.0699Z" fill="#4C679E"/>
<path d="M81.8402 74.31C80.9802 73.87 79.9602 73.74 79.0002 73.96C78.0402 74.18 77.2202 74.72 76.7102 75.47C71.6502 82.34 63.0702 86.62 53.7302 86.94C52.4702 86.9 51.2202 86.78 49.9902 86.58V75.5C50.0002 72.46 48.6202 69.55 46.1602 67.4C43.7002 65.25 40.3702 64.04 36.8802 64.04C28.9802 64.04 21.5602 70.97 24.6102 78.39C28.5202 87.91 43.4702 93.73 53.7302 93.49C59.6402 93.35 65.4302 91.94 70.5702 89.37C75.7102 86.81 80.0402 83.17 83.1802 78.79C83.6802 78.04 83.8202 77.15 83.5702 76.32C83.3202 75.46 82.7002 74.74 81.8402 74.31Z" fill="#EF6565"/>
</svg>
