<svg width="24" height="24" viewBox="0 0 24 24" fill="none" xmlns="http://www.w3.org/2000/svg">
<g clip-path="url(#clip0_424_2503)">
<path d="M17.3922 17.8982C16.973 18.1994 16.4697 18.3612 15.9535 18.3606C15.6082 18.3603 15.2666 18.2892 14.9499 18.1517L14.6895 17.1516L14.1926 15.2368L14.0864 14.8257C14.1277 14.7364 14.151 14.6397 14.155 14.5414C14.1558 14.4331 14.1274 14.3266 14.0727 14.2331C14.0236 14.1449 13.9542 14.0697 13.8703 14.0137C13.7863 13.9577 13.6902 13.9225 13.5899 13.9111C13.5009 13.9042 13.381 13.9077 12.1547 13.9077C11.6095 13.9077 11.0865 13.6919 10.7001 13.3073C10.3137 12.9228 10.0952 12.4009 10.0925 11.8558V11.1671L13.5317 11.5302L14.3538 11.6158L15.296 11.7152C15.6473 11.7525 15.9706 11.924 16.1984 12.194C16.4263 12.464 16.541 12.8116 16.5187 13.1641L16.3166 16.4286C16.3045 16.6261 16.3353 16.8239 16.4069 17.0084C16.4784 17.1929 16.589 17.3597 16.7311 17.4974C16.8302 17.5955 16.9447 17.6765 17.0702 17.7372L17.3922 17.8982Z" fill="#E0925B"/>
<path d="M6.52659 17.4802L6.01959 18.8333C5.81157 18.8559 5.60289 18.797 5.43745 18.6689H5.43403L5.37234 18.6173C5.29707 18.5463 5.23678 18.4609 5.19502 18.3662C5.15325 18.2714 5.13086 18.1693 5.12915 18.0658C5.12918 18.0234 5.13261 17.9811 5.13942 17.9393C5.16855 17.7651 5.25653 17.6061 5.38869 17.4889C5.52085 17.3717 5.6892 17.3034 5.86565 17.2953C5.97655 17.2891 6.08749 17.3067 6.19106 17.3468L6.31096 17.3948L6.52659 17.4802Z" fill="#FED673"/>
<path d="M10.7056 20.8781C10.7047 21.0694 10.677 21.2597 10.6234 21.4433C10.5014 21.8429 10.2534 22.1923 9.91648 22.4393C9.57954 22.6864 9.17174 22.8178 8.75397 22.8139C8.33619 22.81 7.93088 22.6711 7.59856 22.4179C7.26624 22.1647 7.02474 21.8108 6.91015 21.4091C6.85879 21.2368 6.83338 21.0579 6.83477 20.8781C6.83418 20.7032 6.8584 20.529 6.90672 20.3609C7.02211 19.9447 7.27341 19.579 7.62061 19.3222C7.96781 19.0653 8.39096 18.932 8.82269 18.9434C9.25443 18.9548 9.66993 19.1104 10.0031 19.3852C10.3362 19.6601 10.5678 20.0385 10.661 20.4602C10.6899 20.5976 10.7049 20.7377 10.7056 20.8781Z" fill="#FED673"/>
<path d="M22.647 20.7585C22.6474 20.9927 22.6044 21.225 22.5204 21.4436C22.3816 21.811 22.1342 22.1275 21.8111 22.3509C21.488 22.5742 21.1045 22.6939 20.7117 22.6939C20.3189 22.6939 19.9355 22.5742 19.6124 22.3509C19.2893 22.1275 19.0418 21.811 18.9031 21.4436C18.8191 21.225 18.7761 20.9927 18.7765 20.7585C18.7751 20.655 18.7843 20.5517 18.8039 20.4502C18.8764 19.9963 19.1084 19.5832 19.4581 19.285C19.8078 18.9868 20.2523 18.823 20.7119 18.823C21.1715 18.823 21.616 18.9868 21.9657 19.285C22.3154 19.5832 22.5473 19.9963 22.6199 20.4502C22.6394 20.5517 22.6485 20.655 22.647 20.7585Z" fill="#FED673"/>
<path d="M11.1682 20.7585C11.1682 21.3944 10.9156 22.0043 10.4659 22.454C10.0163 22.9037 9.40635 23.1563 8.7704 23.1563C8.13446 23.1563 7.52455 22.9037 7.07487 22.454C6.62519 22.0043 6.37256 21.3944 6.37256 20.7585C6.37256 20.4022 6.56442 20.272 6.78037 20.3097C6.82621 20.3161 6.86972 20.3338 6.90693 20.3613C6.96261 20.3976 7.00652 20.4493 7.03329 20.5101C7.06006 20.571 7.06854 20.6383 7.05768 20.7039V20.7587C7.0565 20.9843 7.09993 21.208 7.18548 21.4168C7.27102 21.6257 7.39699 21.8156 7.55615 21.9756C7.71531 22.1355 7.90452 22.2625 8.11291 22.3491C8.3213 22.4358 8.54475 22.4804 8.77043 22.4804C8.9961 22.4804 9.21956 22.4358 9.42794 22.3491C9.63633 22.2625 9.82554 22.1355 9.9847 21.9756C10.1439 21.8156 10.2698 21.6257 10.3554 21.4168C10.4409 21.208 10.4843 20.9843 10.4832 20.7587C10.4827 20.6974 10.499 20.6372 10.5304 20.5847C10.5618 20.5321 10.6071 20.4892 10.6613 20.4606C10.7108 20.4304 10.7678 20.415 10.8257 20.4161C10.9165 20.4164 11.0034 20.4525 11.0676 20.5167C11.1317 20.5808 11.1679 20.6677 11.1682 20.7585Z" fill="#7C737D"/>
<path d="M23.1094 20.7585C23.1094 21.0733 23.0474 21.3852 22.9269 21.6761C22.8064 21.967 22.6298 22.2313 22.4071 22.454C22.1844 22.6766 21.9201 22.8533 21.6292 22.9738C21.3383 23.0943 21.0265 23.1563 20.7116 23.1563C20.3967 23.1563 20.0849 23.0943 19.7939 22.9738C19.503 22.8533 19.2387 22.6766 19.016 22.454C18.7934 22.2313 18.6167 21.967 18.4962 21.6761C18.3757 21.3852 18.3137 21.0733 18.3137 20.7585C18.314 20.6677 18.3502 20.5807 18.4144 20.5165C18.4785 20.4523 18.5655 20.4162 18.6563 20.4159C18.7073 20.4167 18.7575 20.4284 18.8036 20.4502C18.8622 20.4775 18.9117 20.5211 18.9463 20.5757C18.9809 20.6304 18.9992 20.6938 18.9988 20.7585C18.9991 20.994 19.047 21.227 19.1395 21.4436C19.2734 21.7491 19.4934 22.009 19.7726 22.1915C20.0518 22.374 20.3782 22.4712 20.7118 22.4712C21.0454 22.4712 21.3717 22.374 21.6509 22.1915C21.9302 22.009 22.1502 21.7491 22.2841 21.4436C22.3766 21.227 22.4244 20.994 22.4247 20.7585C22.4244 20.6938 22.4426 20.6304 22.4772 20.5757C22.5118 20.5211 22.5613 20.4775 22.6199 20.4502C22.666 20.4284 22.7162 20.4167 22.7672 20.4159C22.8579 20.4163 22.9448 20.4525 23.0089 20.5167C23.073 20.5808 23.1091 20.6678 23.1094 20.7585Z" fill="#7C737D"/>
<path d="M10.6234 21.4436C10.5014 21.8431 10.2534 22.1925 9.91649 22.4396C9.57955 22.6866 9.17175 22.818 8.75398 22.8141C8.3362 22.8103 7.93089 22.6714 7.59857 22.4182C7.26625 22.165 7.02476 21.8111 6.91016 21.4093C7.00466 21.43 7.10116 21.4404 7.19792 21.4401C7.22294 21.443 7.24812 21.4441 7.2733 21.4436H10.6234Z" fill="#FED673"/>
<path d="M22.5202 21.4435C22.3814 21.8109 22.134 22.1274 21.8109 22.3508C21.4878 22.5741 21.1043 22.6938 20.7115 22.6938C20.3187 22.6938 19.9352 22.5741 19.6121 22.3508C19.289 22.1274 19.0416 21.8109 18.9028 21.4435H22.5202Z" fill="#FED673"/>
<path d="M11.0688 21.4436C10.9163 21.9541 10.5982 22.3994 10.1647 22.7091C9.73118 23.0189 9.20687 23.1755 8.67447 23.1543C8.14207 23.1331 7.63187 22.9353 7.22436 22.592C6.81684 22.2488 6.53519 21.7796 6.42383 21.2585C6.57813 21.3313 6.74186 21.382 6.91025 21.4093C7.00476 21.43 7.10126 21.4404 7.19802 21.4401C7.33124 21.7461 7.55084 22.0067 7.8299 22.1898C8.10897 22.3729 8.43539 22.4706 8.76916 22.4709C9.10293 22.4713 9.42957 22.3743 9.70904 22.1918C9.98851 22.0093 10.2087 21.7493 10.3426 21.4436H11.0688Z" fill="#7C737D"/>
<path d="M23.0101 21.4435C22.8624 21.9384 22.559 22.3724 22.1448 22.6809C21.7307 22.9895 21.2281 23.1562 20.7116 23.1562C20.1952 23.1562 19.6925 22.9895 19.2784 22.6809C18.8642 22.3724 18.5608 21.9384 18.4131 21.4435H19.1391C19.273 21.749 19.493 22.0089 19.7723 22.1914C20.0515 22.3739 20.3779 22.4711 20.7114 22.4711C21.045 22.4711 21.3714 22.3739 21.6506 22.1914C21.9298 22.0089 22.1498 21.749 22.2837 21.4435H23.0101Z" fill="#7C737D"/>
<path d="M7.19807 21.4401C7.10131 21.4404 7.00481 21.4301 6.9103 21.4093C6.74192 21.382 6.57818 21.3313 6.42388 21.2586C6.38928 21.0941 6.372 20.9265 6.37232 20.7585C6.37232 20.4022 6.56418 20.272 6.78013 20.3097C6.82597 20.3161 6.86948 20.3338 6.90669 20.3613C6.96237 20.3976 7.00628 20.4493 7.03305 20.5101C7.05982 20.571 7.0683 20.6383 7.05744 20.7039V20.7587C7.05774 20.993 7.10558 21.2248 7.19807 21.4401Z" fill="#6C646D"/>
<path d="M10.6612 20.4604C10.6071 20.489 10.5618 20.5319 10.5304 20.5845C10.499 20.637 10.4826 20.6972 10.4831 20.7585C10.4828 20.994 10.435 21.227 10.3425 21.4436H7.27349C7.24831 21.4442 7.22313 21.443 7.19811 21.4401C7.1056 21.2248 7.05776 20.9929 7.05749 20.7585V20.7037C7.06834 20.6381 7.05987 20.5708 7.0331 20.5099C7.00633 20.4491 6.96242 20.3974 6.90674 20.3611C7.02213 19.9449 7.27343 19.5793 7.62063 19.3224C7.96783 19.0656 8.39098 18.9322 8.82271 18.9437C9.25444 18.9551 9.66995 19.1106 10.0031 19.3855C10.3362 19.6603 10.5678 20.0387 10.6611 20.4604H10.6612Z" fill="#FEC845"/>
<path d="M11.1681 20.7584C11.1685 20.9904 11.135 21.2212 11.0687 21.4435H10.3425C10.435 21.2269 10.4829 20.9939 10.4832 20.7584C10.4826 20.6972 10.499 20.637 10.5304 20.5844C10.5618 20.5318 10.6071 20.4889 10.6613 20.4604C10.7107 20.4302 10.7678 20.4147 10.8257 20.4158C10.9165 20.4161 11.0034 20.4523 11.0675 20.5165C11.1317 20.5807 11.1678 20.6677 11.1681 20.7584Z" fill="#6C646D"/>
<path d="M19.1391 21.4436H18.4131C18.3468 21.2213 18.3133 20.9904 18.3137 20.7585C18.314 20.6677 18.3502 20.5807 18.4144 20.5165C18.4785 20.4523 18.5655 20.4162 18.6563 20.4159C18.7073 20.4167 18.7575 20.4284 18.8036 20.4502C18.8622 20.4775 18.9117 20.5211 18.9463 20.5757C18.9809 20.6304 18.9992 20.6938 18.9989 20.7585C18.999 20.9939 19.0467 21.227 19.1391 21.4436Z" fill="#6C646D"/>
<path d="M22.6196 20.4502C22.561 20.4775 22.5115 20.5211 22.4769 20.5757C22.4423 20.6304 22.424 20.6938 22.4244 20.7585C22.4241 20.994 22.3762 21.227 22.2837 21.4436H19.1391C19.0466 21.227 18.9988 20.994 18.9985 20.7585C18.9988 20.6938 18.9806 20.6304 18.946 20.5757C18.9114 20.5211 18.8618 20.4775 18.8032 20.4502C18.8758 19.9963 19.1077 19.5832 19.4574 19.285C19.8071 18.9868 20.2516 18.823 20.7112 18.823C21.1708 18.823 21.6153 18.9868 21.965 19.285C22.3147 19.5832 22.5467 19.9963 22.6192 20.4502H22.6196Z" fill="#FEC845"/>
<path d="M23.1095 20.7585C23.1098 20.9904 23.0764 21.2213 23.0101 21.4436H22.2839C22.3764 21.227 22.4243 20.994 22.4246 20.7585C22.4242 20.6938 22.4425 20.6304 22.4771 20.5757C22.5117 20.5211 22.5612 20.4775 22.6198 20.4502C22.6659 20.4284 22.7161 20.4167 22.7671 20.4159C22.8578 20.4162 22.9447 20.4524 23.0089 20.5166C23.073 20.5808 23.1092 20.6677 23.1095 20.7585Z" fill="#6C646D"/>
<path d="M17.3922 17.8982C16.973 18.1995 16.4697 18.3612 15.9534 18.3606C15.6081 18.3603 15.2665 18.2892 14.9498 18.1517L14.6895 17.1516C14.9517 17.4142 15.2891 17.5886 15.655 17.6506C16.0209 17.7126 16.397 17.6591 16.731 17.4976C16.8301 17.5957 16.9447 17.6767 17.0701 17.7374L17.3922 17.8982Z" fill="#DB7A35"/>
<path d="M23.1095 20.7584H7.27351C7.05356 20.7584 6.83686 20.7054 6.64175 20.6039C6.44664 20.5023 6.27889 20.3553 6.15269 20.1751C6.02649 19.995 5.94558 19.7871 5.9168 19.569C5.88802 19.3509 5.91222 19.1292 5.98735 18.9225L6.01975 18.8334L6.52675 17.4803L7.03028 16.1341L7.28031 15.4627C7.65313 15.7856 8.12992 15.9632 8.62314 15.9628H12.2473C12.6953 15.9633 13.131 15.8165 13.4873 15.5449C13.4701 15.8072 13.4851 16.0707 13.5318 16.3294C13.8881 18.21 15.974 18.9122 17.3924 17.8982C17.7165 17.6711 17.9811 17.369 18.1636 17.0178C18.3461 16.6665 18.4412 16.2764 18.4407 15.8805C18.4407 15.6305 18.0194 11.4445 17.8995 10.1394C17.8858 9.975 17.8755 9.85852 17.8721 9.79688H19.9891L20.6646 17.8006C20.6757 17.9458 20.7335 18.0835 20.8292 18.1931C20.925 18.3028 21.0536 18.3786 21.1959 18.4093C21.7367 18.5206 22.2224 18.8151 22.571 19.2431C22.9197 19.6711 23.1099 20.2064 23.1095 20.7584Z" fill="#F16069"/>
<path d="M19.9887 9.79688H17.8718C17.8752 9.85852 17.8855 9.975 17.8992 10.1394C17.9164 10.3176 17.9367 10.5539 17.9643 10.8245H18.3137C18.4198 10.8241 18.5255 10.8115 18.6288 10.787C18.787 11.0105 18.9965 11.1928 19.2396 11.3185C19.4828 11.4443 19.7527 11.5099 20.0264 11.5098H20.1328L19.9887 9.79688Z" fill="#EF444E"/>
<path d="M18.9988 9.45429C18.9986 9.57464 18.9667 9.69281 18.9062 9.79686C18.8767 9.84875 18.8399 9.89612 18.7968 9.93748C18.7341 10.0019 18.6589 10.0529 18.576 10.0877C18.493 10.1224 18.404 10.14 18.314 10.1396H14.4328C14.3164 10.4009 14.1801 10.6529 14.025 10.8932C13.8807 11.1205 13.7156 11.3338 13.5317 11.5303L10.0925 11.1672C10.0942 10.9382 10.1183 10.7099 10.1644 10.4856C10.531 8.74883 12.182 7.13201 13.2474 6.24481C13.4529 6.07011 13.6345 5.92606 13.7852 5.81323C14.0907 6.11428 14.468 6.3324 14.8813 6.44694C15.0776 6.65441 15.2045 6.91777 15.2444 7.20054C15.3369 7.78287 15.1179 8.42 14.8916 8.7694H18.3135C18.495 8.7699 18.669 8.8422 18.7974 8.97053C18.9258 9.09885 18.9982 9.27277 18.9988 9.45429Z" fill="#FED673"/>
<path d="M14.025 10.8931C13.8807 11.1204 13.7156 11.3337 13.5317 11.5302L10.0925 11.1671C10.0942 10.9381 10.1183 10.7098 10.1644 10.4855L14.025 10.8931Z" fill="#FEC845"/>
<path d="M8.59908 4.48739C8.59908 2.59552 6.91205 0.890625 4.83104 0.890625C2.75002 0.890625 1.06299 2.59552 1.06299 4.48739C1.06299 6.37927 2.75002 8.08416 4.83104 8.08416C4.93932 8.08416 5.04582 8.0768 5.1518 8.0678L6.54399 9.1118V7.67077C7.76293 7.05319 8.59908 5.81794 8.59908 4.48739Z" fill="#F16069"/>
<path d="M5.83814 7.38192L6.54366 7.91287V9.11179L5.15302 8.06718C5.04685 8.07745 4.94063 8.08434 4.83103 8.08434C2.74833 8.08434 1.06299 6.37842 1.06299 4.48757C1.06299 3.40167 1.61794 2.37745 2.48799 1.70264C2.01586 2.30136 1.75572 3.03982 1.74835 3.80226C1.74835 5.69315 3.43364 7.39903 5.51635 7.39903C5.62575 7.39903 5.73193 7.39218 5.83814 7.38192Z" fill="#EF353F"/>
<path d="M4.83116 2.60339C6.02516 2.60339 6.88644 3.46589 6.88644 4.65872V5.68636C6.88639 5.7314 6.87747 5.77599 6.86019 5.81757C6.8429 5.85916 6.8176 5.89694 6.78571 5.92875C6.75383 5.96055 6.71599 5.98577 6.67436 6.00295C6.63273 6.02013 6.58812 6.02894 6.54308 6.02888H3.11919C3.07416 6.02893 3.02956 6.02012 2.98793 6.00293C2.9463 5.98575 2.90847 5.96054 2.87659 5.92873C2.84471 5.89692 2.81941 5.85915 2.80213 5.81756C2.78485 5.77598 2.77593 5.7314 2.77588 5.68636V4.65872C2.77588 3.46589 3.63711 2.60339 4.83116 2.60339Z" fill="#E69B6C"/>
<path d="M6.90888 5.3438C6.57021 5.3438 6.38819 5.2239 6.24194 5.12752C6.12658 5.05144 6.05037 5.00124 5.86919 5.00124C5.68802 5.00124 5.6118 5.05144 5.49644 5.12752C5.35019 5.2239 5.16832 5.3438 4.82951 5.3438C4.49069 5.3438 4.30919 5.22371 4.16299 5.12738C4.04805 5.05144 3.97197 5.00124 3.79141 5.00124C3.61085 5.00124 3.53472 5.05144 3.41979 5.12738C3.27372 5.22371 3.09166 5.3438 2.7536 5.3438C2.58954 5.3438 2.45679 5.19043 2.45679 5.00124C2.45679 4.81205 2.58968 4.65872 2.7536 4.65872C2.93416 4.65872 3.0101 4.60852 3.12504 4.53258C3.2711 4.43626 3.45316 4.31616 3.79141 4.31616C4.12966 4.31616 4.31172 4.43626 4.45774 4.53258C4.57282 4.60852 4.64876 4.65872 4.82951 4.65872C5.01026 4.65872 5.0869 4.60852 5.20226 4.53244C5.34846 4.43607 5.53038 4.31616 5.86919 4.31616C6.20801 4.31616 6.38993 4.43607 6.53613 4.53244C6.65149 4.60852 6.72776 4.65872 6.90888 4.65872C7.07294 4.65872 7.20569 4.8121 7.20569 5.00124C7.20569 5.19038 7.0728 5.3438 6.90888 5.3438Z" fill="#85CCAB"/>
<path d="M4.83116 2.60339C6.02516 2.60339 6.88644 3.46589 6.88644 4.65872V5.68636C6.88639 5.7314 6.87747 5.77599 6.86019 5.81757C6.8429 5.85916 6.8176 5.89694 6.78571 5.92875C6.75383 5.96055 6.71599 5.98577 6.67436 6.00295C6.63273 6.02013 6.58812 6.02894 6.54308 6.02888H3.11919C3.07416 6.02893 3.02956 6.02012 2.98793 6.00293C2.9463 5.98575 2.90847 5.96054 2.87659 5.92873C2.84471 5.89692 2.81941 5.85915 2.80213 5.81756C2.78485 5.77598 2.77593 5.7314 2.77588 5.68636V4.65872C2.77588 3.46589 3.63711 2.60339 4.83116 2.60339Z" fill="#E69B6C"/>
<path d="M6.88644 5.68627C6.88617 5.77703 6.84999 5.864 6.7858 5.92818C6.72162 5.99236 6.63464 6.02852 6.54388 6.02878H3.11839C3.02763 6.02852 2.94066 5.99235 2.87649 5.92818C2.81231 5.864 2.77614 5.77703 2.77588 5.68627V4.65863C2.77588 3.97008 3.0636 3.38775 3.53994 3.02466C3.27275 3.36717 3.11858 3.81249 3.11858 4.31606C3.11906 4.38605 3.12479 4.45591 3.13574 4.52503C3.16884 4.74991 3.25972 4.96235 3.3995 5.14158C3.43689 5.19158 3.47811 5.2386 3.52279 5.28221C3.64889 5.41036 3.79926 5.5121 3.96512 5.5815C4.13097 5.6509 4.30899 5.68656 4.48879 5.68641L6.88644 5.68627Z" fill="#E28044"/>
<path d="M6.90888 5.3438C6.57021 5.3438 6.38819 5.2239 6.24194 5.12752C6.12658 5.05144 6.05037 5.00124 5.86919 5.00124C5.68802 5.00124 5.6118 5.05144 5.49644 5.12752C5.35019 5.2239 5.16832 5.3438 4.82951 5.3438C4.49069 5.3438 4.30919 5.22371 4.16299 5.12738C4.04805 5.05144 3.97197 5.00124 3.79141 5.00124C3.61085 5.00124 3.53472 5.05144 3.41979 5.12738C3.27372 5.22371 3.09166 5.3438 2.7536 5.3438C2.58954 5.3438 2.45679 5.19043 2.45679 5.00124C2.45679 4.81205 2.58968 4.65872 2.7536 4.65872C2.93416 4.65872 3.0101 4.60852 3.12504 4.53258C3.2711 4.43626 3.45316 4.31616 3.79141 4.31616C4.12966 4.31616 4.31172 4.43626 4.45774 4.53258C4.57282 4.60852 4.64876 4.65872 4.82951 4.65872C5.01026 4.65872 5.0869 4.60852 5.20226 4.53244C5.34846 4.43607 5.53038 4.31616 5.86919 4.31616C6.20801 4.31616 6.38993 4.43607 6.53613 4.53244C6.65149 4.60852 6.72776 4.65872 6.90888 4.65872C7.07294 4.65872 7.20569 4.8121 7.20569 5.00124C7.20569 5.19038 7.0728 5.3438 6.90888 5.3438Z" fill="#85CCAB"/>
<path d="M3.39928 5.14163C3.21679 5.27072 2.99935 5.34122 2.77584 5.34375H2.75184C2.59087 5.34375 2.45728 5.18958 2.45728 5.00119C2.45728 4.8128 2.59087 4.65867 2.75184 4.65867H2.77584C2.94023 4.65521 3.0156 4.60383 3.12524 4.53211C3.12867 4.52869 3.13209 4.52869 3.13551 4.52527C3.16864 4.75008 3.25952 4.96245 3.39928 5.14163Z" fill="#63C397"/>
<path d="M13.5318 16.3293C13.1369 16.5406 12.6954 16.6502 12.2475 16.648H8.62313C8.05187 16.6452 7.49546 16.4657 7.03027 16.1342L7.2803 15.4628C7.65313 15.7857 8.12992 15.9632 8.62313 15.9629H12.2473C12.6953 15.9634 13.131 15.8166 13.4873 15.545C13.4702 15.8072 13.4851 16.0706 13.5318 16.3293Z" fill="#EF444E"/>
<path d="M14.0868 14.8255C13.9158 15.167 13.6532 15.4542 13.3283 15.655C13.0035 15.8559 12.6292 15.9624 12.2473 15.9628H8.62315C8.24128 15.9622 7.86707 15.8556 7.54226 15.6548C7.21745 15.454 6.95482 15.1669 6.78368 14.8255C6.73522 14.729 6.71223 14.6217 6.7169 14.5138C6.72157 14.4059 6.75375 14.3009 6.81037 14.209C6.867 14.117 6.94619 14.041 7.04043 13.9882C7.13468 13.9355 7.24084 13.9077 7.34885 13.9075L13.5901 13.9109C13.6916 13.9223 13.7889 13.9581 13.8737 14.0151C13.9584 14.0722 14.0282 14.1489 14.0769 14.2387C14.1257 14.3285 14.1521 14.4287 14.1538 14.5309C14.1555 14.6331 14.1325 14.7341 14.0868 14.8255Z" fill="#7C737D"/>
<path d="M8.72241 13.9075H4.61185V10.2332C4.61185 10.2083 4.62173 10.1845 4.63931 10.1669C4.65689 10.1493 4.68074 10.1394 4.7056 10.1394H8.62866C8.65353 10.1394 8.67737 10.1493 8.69495 10.1669C8.71253 10.1845 8.72241 10.2083 8.72241 10.2332V13.9075Z" fill="#E69B6C"/>
<path d="M8.72238 12.8798V13.9074H4.61182V10.8245C4.61235 10.643 4.6847 10.469 4.81306 10.3406C4.94142 10.2123 5.11536 10.1399 5.29689 10.1394C5.29689 10.4993 5.36778 10.8556 5.50549 11.1881C5.64321 11.5206 5.84506 11.8227 6.09953 12.0771C6.61344 12.591 7.31047 12.8798 8.03725 12.8798H8.72238Z" fill="#E28044"/>
<path d="M17.6285 3.80225C17.6301 4.03224 17.6083 4.26179 17.5634 4.48737C17.4127 5.2752 16.9742 5.87487 16.2583 6.10076C16.0364 6.16875 15.8053 6.20225 15.5732 6.20009V3.80225H17.6285Z" fill="#FCD7CA"/>
<path d="M22.0817 9.79693C22.0819 9.93193 22.0554 10.0656 22.0038 10.1904C21.9523 10.3152 21.8766 10.4285 21.7811 10.524C21.6857 10.6194 21.5723 10.6951 21.4475 10.7467C21.3228 10.7983 21.1891 10.8247 21.0541 10.8246H20.0264C19.7539 10.8246 19.4925 10.7163 19.2998 10.5236C19.107 10.3309 18.9988 10.0695 18.9988 9.79693C18.9988 9.52438 19.107 9.263 19.2998 9.07028C19.4925 8.87756 19.7539 8.76929 20.0264 8.76929H21.0541C21.3265 8.76972 21.5876 8.87813 21.7802 9.07076C21.9729 9.26338 22.0813 9.52451 22.0817 9.79693Z" fill="#2FD9E7"/>
<path d="M21.9309 10.3312C21.8402 10.4825 21.7116 10.6076 21.5578 10.6941C21.4041 10.7806 21.2304 10.8255 21.054 10.8245H20.0264C19.8022 10.8246 19.5842 10.7514 19.4056 10.616C19.227 10.4807 19.0975 10.2906 19.037 10.0748C18.9764 9.85906 18.9881 9.62939 19.0703 9.42087C19.1524 9.21235 19.3005 9.03642 19.492 8.91992C19.3968 9.07561 19.3449 9.25385 19.3415 9.43629C19.3381 9.61873 19.3834 9.79878 19.4727 9.9579C19.562 10.117 19.6921 10.2494 19.8497 10.3416C20.0072 10.4337 20.1864 10.4821 20.3689 10.4819H21.3966C21.5853 10.4825 21.7703 10.4303 21.9309 10.3312Z" fill="#0DCEDE"/>
<path d="M3.24151 13.2223H2.36073C2.31541 13.2229 2.27043 13.2144 2.22841 13.1974C2.18639 13.1804 2.14815 13.1553 2.11592 13.1234C2.08368 13.0916 2.05809 13.0536 2.04062 13.0118C2.02315 12.97 2.01416 12.9251 2.01416 12.8798C2.01416 12.8345 2.02315 12.7896 2.04062 12.7478C2.05809 12.706 2.08368 12.668 2.11592 12.6362C2.14815 12.6043 2.18639 12.5791 2.22841 12.5622C2.27043 12.5452 2.31541 12.5367 2.36073 12.5373H3.24151C3.28683 12.5367 3.33181 12.5452 3.37383 12.5622C3.41585 12.5791 3.45409 12.6043 3.48633 12.6362C3.51856 12.668 3.54415 12.706 3.56162 12.7478C3.57909 12.7896 3.58808 12.8345 3.58808 12.8798C3.58808 12.9251 3.57909 12.97 3.56162 13.0118C3.54415 13.0536 3.51856 13.0916 3.48633 13.1234C3.45409 13.1553 3.41585 13.1804 3.37383 13.1974C3.33181 13.2144 3.28683 13.2229 3.24151 13.2223Z" fill="#E69B6C"/>
<path d="M3.2416 11.8522H1.77357C1.72825 11.8527 1.68328 11.8443 1.64125 11.8273C1.59923 11.8103 1.56099 11.7852 1.52876 11.7533C1.49652 11.7215 1.47093 11.6835 1.45346 11.6417C1.436 11.5999 1.427 11.555 1.427 11.5097C1.427 11.4644 1.436 11.4195 1.45346 11.3777C1.47093 11.3358 1.49652 11.2979 1.52876 11.266C1.56099 11.2342 1.59923 11.209 1.64125 11.1921C1.68328 11.1751 1.72825 11.1666 1.77357 11.1671H3.2416C3.28692 11.1666 3.3319 11.1751 3.37392 11.1921C3.41594 11.209 3.45418 11.2342 3.48642 11.266C3.51865 11.2979 3.54424 11.3358 3.56171 11.3777C3.57918 11.4195 3.58817 11.4644 3.58817 11.5097C3.58817 11.555 3.57918 11.5999 3.56171 11.6417C3.54424 11.6835 3.51865 11.7215 3.48642 11.7533C3.45418 11.7852 3.41594 11.8103 3.37392 11.8273C3.3319 11.8443 3.28692 11.8527 3.2416 11.8522Z" fill="#E69B6C"/>
<path d="M3.24169 10.482H1.18641C1.14109 10.4825 1.09612 10.474 1.05409 10.4571C1.01207 10.4401 0.973834 10.4149 0.941599 10.3831C0.909364 10.3512 0.883771 10.3133 0.866304 10.2715C0.848838 10.2296 0.839844 10.1848 0.839844 10.1394C0.839844 10.0941 0.848838 10.0492 0.866304 10.0074C0.883771 9.9656 0.909364 9.92766 0.941599 9.8958C0.973834 9.86394 1.01207 9.83879 1.05409 9.82181C1.09612 9.80484 1.14109 9.79637 1.18641 9.7969H3.24169C3.28701 9.79637 3.33199 9.80484 3.37401 9.82181C3.41604 9.83879 3.45427 9.86394 3.48651 9.8958C3.51874 9.92766 3.54434 9.9656 3.5618 10.0074C3.57927 10.0492 3.58826 10.0941 3.58826 10.1394C3.58826 10.1848 3.57927 10.2296 3.5618 10.2715C3.54434 10.3133 3.51874 10.3512 3.48651 10.3831C3.45427 10.4149 3.41604 10.4401 3.37401 10.4571C3.33199 10.474 3.28701 10.4825 3.24169 10.482Z" fill="#E69B6C"/>
<path d="M14.8813 6.44681C15.0775 6.65429 15.2044 6.91765 15.2444 7.20042H15.2343C15.1816 7.20039 15.129 7.19696 15.0768 7.19016C14.9482 7.17013 14.8212 7.14152 14.6965 7.10452C14.171 6.95882 13.6912 6.68178 13.3024 6.29949C13.2852 6.28238 13.2649 6.26527 13.2476 6.24469C13.4531 6.06999 13.6346 5.92594 13.7854 5.81311C14.0908 6.11413 14.468 6.33225 14.8813 6.44681Z" fill="#FECD55"/>
<path d="M17.6285 3.80225C17.6301 4.03224 17.6083 4.26179 17.5634 4.48737C17.2173 4.48737 16.8853 4.62487 16.6406 4.86962C16.3958 5.11438 16.2583 5.44633 16.2583 5.79246V6.10076C16.0364 6.16875 15.8053 6.20225 15.5732 6.20009V3.80225H17.6285Z" fill="#FAC1AD"/>
<path d="M18.1321 3.80225H15.5733V6.1708C15.5735 6.22003 15.5631 6.26874 15.5428 6.31361C15.5226 6.35848 15.4929 6.39846 15.4558 6.43085C15.4187 6.46324 15.3751 6.48727 15.3279 6.50132C15.2807 6.51537 15.2311 6.51911 15.1823 6.51228C15.0808 6.49641 14.9802 6.4745 14.8813 6.44666C14.468 6.33212 14.0907 6.114 13.7852 5.81295C13.5045 5.54321 13.2893 5.21269 13.1563 4.8468C13.0234 4.48091 12.976 4.0894 13.018 3.70236C13.0852 3.06293 13.39 2.472 13.8719 2.04646C14.3539 1.62092 14.9781 1.39175 15.6209 1.4043C16.2637 1.41684 16.8784 1.67018 17.3434 2.1142C17.8085 2.55822 18.0899 3.16059 18.1321 3.80216V3.80225Z" fill="#F16069"/>
<path d="M15.5665 5.76164C15.5699 5.76164 15.5699 5.76164 15.5734 5.76506V6.16926C15.5736 6.21851 15.5633 6.26724 15.5431 6.31215C15.5228 6.35706 15.4932 6.39711 15.4562 6.42958C15.4192 6.46206 15.3756 6.48621 15.3285 6.5004C15.2813 6.51459 15.2316 6.51848 15.1828 6.51183C15.0813 6.4954 14.9807 6.47369 14.8814 6.44676C14.468 6.33222 14.0908 6.11411 13.7853 5.81306C13.5108 5.54817 13.299 5.22524 13.1655 4.86793C13.032 4.51061 12.98 4.12795 13.0135 3.74797C13.047 3.36799 13.1651 3.00032 13.3591 2.67187C13.5531 2.34342 13.818 2.06252 14.1346 1.84973C13.7936 2.34753 13.6401 2.95017 13.7016 3.55046C13.7631 4.15075 14.0355 4.70978 14.4703 5.12812C14.7759 5.42913 15.1531 5.64718 15.5665 5.76164Z" fill="#EF444E"/>
<path d="M11.8052 19.0457H9.06477V17.4267C9.06477 17.4018 9.07465 17.378 9.09223 17.3604C9.10981 17.3428 9.13366 17.3329 9.15852 17.3329H11.7114C11.7363 17.3329 11.7601 17.3428 11.7777 17.3604C11.7953 17.378 11.8052 17.4018 11.8052 17.4267V19.0457Z" fill="#2FD9E7"/>
<path d="M11.8053 18.7032V19.0457H9.06494V18.0181C9.06529 17.8863 9.1036 17.7574 9.17528 17.6469C9.24697 17.5363 9.34899 17.4487 9.46914 17.3947C9.42779 17.4825 9.4067 17.5785 9.40746 17.6755C9.40746 17.9481 9.51573 18.2095 9.70845 18.4022C9.90117 18.5949 10.1626 18.7032 10.4351 18.7032H11.8053Z" fill="#0DCEDE"/>
<path d="M18.3137 4.14482H15.5734C15.5281 4.14535 15.4831 4.13688 15.4411 4.1199C15.399 4.10293 15.3608 4.07778 15.3286 4.04592C15.2963 4.01406 15.2707 3.97612 15.2533 3.9343C15.2358 3.89248 15.2268 3.8476 15.2268 3.80228C15.2268 3.75696 15.2358 3.71208 15.2533 3.67026C15.2707 3.62844 15.2963 3.5905 15.3286 3.55864C15.3608 3.52678 15.399 3.50163 15.4411 3.48466C15.4831 3.46768 15.5281 3.45921 15.5734 3.45974H18.3137C18.3591 3.45921 18.404 3.46768 18.4461 3.48466C18.4881 3.50163 18.5263 3.52678 18.5585 3.55864C18.5908 3.5905 18.6164 3.62844 18.6338 3.67026C18.6513 3.71208 18.6603 3.75696 18.6603 3.80228C18.6603 3.8476 18.6513 3.89248 18.6338 3.9343C18.6164 3.97612 18.5908 4.01406 18.5585 4.04592C18.5263 4.07778 18.4881 4.10293 18.4461 4.1199C18.404 4.13688 18.3591 4.14535 18.3137 4.14482Z" fill="#FFE589"/>
<path d="M8.7223 13.2223H4.26918C4.22386 13.2218 4.17888 13.2303 4.13686 13.2472C4.09483 13.2642 4.0566 13.2894 4.02436 13.3212C3.99213 13.3531 3.96653 13.391 3.94907 13.4328C3.9316 13.4747 3.92261 13.5195 3.92261 13.5649C3.92261 13.6102 3.9316 13.655 3.94907 13.6969C3.96653 13.7387 3.99213 13.7766 4.02436 13.8085C4.0566 13.8404 4.09483 13.8655 4.13686 13.8825C4.17888 13.8995 4.22386 13.9079 4.26918 13.9074H8.7223V13.2223Z" fill="#2FD9E7"/>
<path d="M18.3137 4.14482H15.5734C15.5281 4.14535 15.4831 4.13688 15.4411 4.1199C15.399 4.10293 15.3608 4.07778 15.3286 4.04592C15.2963 4.01406 15.2707 3.97612 15.2533 3.9343C15.2358 3.89248 15.2268 3.8476 15.2268 3.80228C15.2268 3.75696 15.2358 3.71208 15.2533 3.67026C15.2707 3.62844 15.2963 3.5905 15.3286 3.55864C15.3608 3.52678 15.399 3.50163 15.4411 3.48466C15.4831 3.46768 15.5281 3.45921 15.5734 3.45974H18.3137C18.3591 3.45921 18.404 3.46768 18.4461 3.48466C18.4881 3.50163 18.5263 3.52678 18.5585 3.55864C18.5908 3.5905 18.6164 3.62844 18.6338 3.67026C18.6513 3.71208 18.6603 3.75696 18.6603 3.80228C18.6603 3.8476 18.6513 3.89248 18.6338 3.9343C18.6164 3.97612 18.5908 4.01406 18.5585 4.04592C18.5263 4.07778 18.4881 4.10293 18.4461 4.1199C18.404 4.13688 18.3591 4.14535 18.3137 4.14482Z" fill="#FFE589"/>
<path d="M6.52664 17.4802L6.01964 18.8333C5.81162 18.856 5.60294 18.797 5.4375 18.6689C6.00272 18.6621 6.31102 17.3947 6.31102 17.3947L6.52664 17.4802Z" fill="#FEC845"/>
</g>
<defs>
<clipPath id="clip0_424_2503">
<rect width="24" height="24" fill="white"/>
</clipPath>
</defs>
</svg>
