<svg width="20" height="21" viewBox="0 0 20 21" fill="none" xmlns="http://www.w3.org/2000/svg">
<path fill-rule="evenodd" clip-rule="evenodd" d="M19.125 8.65033V16.4668C19.125 18.6943 17.2346 20.5 14.9028 20.5H4.34722C2.01535 20.5 0.125 18.6943 0.125 16.4668V8.65033C0.125 7.43937 0.694625 6.2925 1.67652 5.52652L6.9543 1.40935C8.50854 0.196886 10.7415 0.196883 12.2957 1.40935L17.5735 5.52652C18.5554 6.2925 19.125 7.43937 19.125 8.65033ZM5.7119 13.8095C5.30939 13.6477 4.84467 13.8257 4.67392 14.207C4.50316 14.5883 4.69102 15.0286 5.09353 15.1904C6.81301 15.8815 8.22893 16.2533 9.66962 16.2499C11.1111 16.2465 12.4987 15.8676 14.1606 15.1886C14.5621 15.0246 14.7472 14.5833 14.5741 14.203C14.401 13.8226 13.9352 13.6472 13.5337 13.8112C11.9618 14.4534 10.801 14.7472 9.66567 14.7499C8.52953 14.7526 7.34014 14.4639 5.7119 13.8095Z" fill="#F35C6E"/>
</svg>
