<svg width="18" height="18" viewBox="0 0 18 18" fill="none" xmlns="http://www.w3.org/2000/svg">
<circle cx="9" cy="9" r="9" fill="white"/>
<path d="M5.76923 9.35698C7.29864 9.35698 8.53846 8.15778 8.53846 6.67849C8.53846 5.1992 7.29864 4 5.76923 4C4.23983 4 3 5.1992 3 6.67849C3 8.15778 4.23983 9.35698 5.76923 9.35698Z" fill="#4C679E"/>
<path d="M12.2307 9.35698C13.7601 9.35698 14.9999 8.15778 14.9999 6.67849C14.9999 5.1992 13.7601 4 12.2307 4C10.7013 4 9.46143 5.1992 9.46143 6.67849C9.46143 8.15778 10.7013 9.35698 12.2307 9.35698Z" fill="#4C679E"/>
<path d="M13.6779 11.743C13.5255 11.6749 13.3509 11.665 13.1918 11.7178C13.0326 11.7706 12.9022 11.8795 12.8274 12.0223C12.0766 13.3356 10.6901 14.2267 9.11403 14.4104C8.90012 14.4201 8.68668 14.4152 8.47539 14.3955L8.30476 12.3873C8.25964 11.8362 7.98122 11.3273 7.5317 10.9707C7.08217 10.6141 6.49984 10.4396 5.90907 10.4866C4.57178 10.5929 3.42246 11.9488 4.05302 13.2526C4.8615 14.9254 7.48181 15.7791 9.21489 15.5976C10.2132 15.4927 11.1716 15.1592 12.0021 14.6242C12.8327 14.0911 13.5096 13.3731 13.9737 12.537C14.0468 12.3943 14.0568 12.2311 14.0017 12.0841C13.9461 11.9316 13.8301 11.8094 13.6779 11.743Z" fill="#EF6565"/>
</svg>
