<svg width="84" height="71" viewBox="0 0 84 71" fill="none" xmlns="http://www.w3.org/2000/svg">
<circle cx="33.1687" cy="37.122" r="33.1687" fill="#F9FAFB"/>
<circle cx="0.921353" cy="63.8412" r="0.921353" fill="#86EFAC"/>
<circle cx="63.5737" cy="69.3694" r="0.921353" fill="#FDE047"/>
<circle cx="11.978" cy="4.87466" r="0.921353" fill="#E5E7EB"/>
<path opacity="0.8" fill-rule="evenodd" clip-rule="evenodd" d="M29.1153 36.4024V30.0276C29.1153 28.146 29.8627 26.3415 31.1932 25.0111C32.5237 23.6806 34.3282 22.9332 36.2097 22.9332C38.0913 22.9332 39.8958 23.6806 41.2262 25.0111C42.5567 26.3415 43.3041 28.146 43.3041 30.0276V36.4024C46.2351 37.274 48.3716 39.9902 48.3716 43.2029V49.2839C48.3716 51.1654 47.6241 52.9699 46.2937 54.3004C44.9632 55.6308 43.1587 56.3783 41.2772 56.3783H31.1423C29.2607 56.3783 27.4562 55.6308 26.1258 54.3004C24.7953 52.9699 24.0479 51.1654 24.0479 49.2839V43.2029C24.0481 41.675 24.5414 40.1879 25.4543 38.9627C26.3673 37.7375 27.6512 36.8396 29.1153 36.4024ZM32.1558 36.1085V30.0276C32.1558 28.9524 32.5829 27.9213 33.3431 27.161C34.1034 26.4007 35.1345 25.9736 36.2097 25.9736C37.2849 25.9736 38.316 26.4007 39.0763 27.161C39.8366 27.9213 40.2637 28.9524 40.2637 30.0276V36.1085H32.1558Z" fill="#AFE8FF"/>
<path fill-rule="evenodd" clip-rule="evenodd" d="M28.1016 42.1895C28.1016 43.2646 28.5287 44.2958 29.2889 45.056C30.0492 45.8163 31.0803 46.2434 32.1555 46.2434C33.2307 46.2434 34.2618 45.8163 35.0221 45.056C35.7824 44.2958 36.2095 43.2646 36.2095 42.1895C36.2095 41.1143 35.7824 40.0831 35.0221 39.3229C34.2618 38.5626 33.2307 38.1355 32.1555 38.1355C31.0803 38.1355 30.0492 38.5626 29.2889 39.3229C28.5287 40.0831 28.1016 41.1143 28.1016 42.1895ZM34.1825 42.1895C34.1825 42.727 33.9689 43.2426 33.5888 43.6227C33.2087 44.0029 32.6931 44.2164 32.1555 44.2164C31.6179 44.2164 31.1024 44.0029 30.7222 43.6227C30.3421 43.2426 30.1285 42.727 30.1285 42.1895C30.1285 41.6519 30.3421 41.1363 30.7222 40.7562C31.1024 40.376 31.6179 40.1625 32.1555 40.1625C32.6931 40.1625 33.2087 40.376 33.5888 40.7562C33.9689 41.1363 34.1825 41.6519 34.1825 42.1895Z" fill="#0080B3"/>
<path fill-rule="evenodd" clip-rule="evenodd" d="M37.2234 32.0546H27.0886C25.207 32.0546 23.4025 32.802 22.072 34.1325C20.7416 35.4629 19.9941 37.2674 19.9941 39.149V45.2299C19.9941 47.1115 20.7416 48.916 22.072 50.2464C23.4025 51.5769 25.207 52.3243 27.0886 52.3243H37.2234C39.105 52.3243 40.9095 51.5769 42.24 50.2464C43.5704 48.916 44.3179 47.1115 44.3179 45.2299V39.149C44.3179 37.2674 43.5704 35.4629 42.24 34.1325C40.9095 32.802 39.105 32.0546 37.2234 32.0546ZM22.0211 39.149C22.0211 37.805 22.555 36.5161 23.5053 35.5658C24.4557 34.6154 25.7446 34.0815 27.0886 34.0815H37.2234C38.5674 34.0815 39.8563 34.6154 40.8067 35.5658C41.757 36.5161 42.2909 37.805 42.2909 39.149V45.2299C42.2909 46.5739 41.757 47.8628 40.8067 48.8131C39.8563 49.7635 38.5674 50.2974 37.2234 50.2974H27.0886C25.7446 50.2974 24.4557 49.7635 23.5053 48.8131C22.555 47.8628 22.0211 46.5739 22.0211 45.2299V39.149Z" fill="#0080B3"/>
<path d="M27.0885 33.0681C27.0885 33.3368 26.9817 33.5946 26.7917 33.7847C26.6016 33.9748 26.3438 34.0815 26.075 34.0815C25.8062 34.0815 25.5484 33.9748 25.3584 33.7847C25.1683 33.5946 25.0615 33.3368 25.0615 33.0681V25.9736C25.0615 25.042 25.245 24.1195 25.6016 23.2587C25.9581 22.398 26.4807 21.6159 27.1394 20.9571C27.7982 20.2983 28.5803 19.7758 29.441 19.4192C30.3018 19.0627 31.2243 18.8792 32.1559 18.8792C33.0876 18.8792 34.0101 19.0627 34.8709 19.4192C35.7316 19.7758 36.5137 20.2983 37.1725 20.9571C37.8312 21.6159 38.3538 22.398 38.7103 23.2587C39.0669 24.1195 39.2504 25.042 39.2504 25.9736V33.0681C39.2504 33.3368 39.1436 33.5946 38.9535 33.7847C38.7635 33.9748 38.5057 34.0815 38.2369 34.0815C37.9681 34.0815 37.7103 33.9748 37.5202 33.7847C37.3302 33.5946 37.2234 33.3368 37.2234 33.0681V25.9736C37.2234 24.6297 36.6895 23.3407 35.7392 22.3904C34.7888 21.4401 33.4999 20.9062 32.1559 20.9062C30.812 20.9062 29.523 21.4401 28.5727 22.3904C27.6224 23.3407 27.0885 24.6297 27.0885 25.9736V33.0681Z" fill="#0080B3"/>
<path fill-rule="evenodd" clip-rule="evenodd" d="M73.682 21.1216C75.5929 20.9645 77.5502 21.0545 79.4467 21.1545C79.8549 21.1773 80.1836 21.4942 80.1514 21.8563C80.1477 22.2235 79.8057 22.5017 79.4261 22.4838C77.5882 22.3854 75.6907 22.2919 73.8687 22.4461C73.4801 22.4807 73.1137 22.2108 73.0583 21.8445C73.0029 21.4785 73.2934 21.1564 73.682 21.1216Z" fill="#FFF1EE"/>
<path fill-rule="evenodd" clip-rule="evenodd" d="M69.2652 13.5271C72.6795 11.2844 76.4055 9.45833 79.7751 7.13222C80.0774 6.91286 80.5376 6.97674 80.7818 7.27119C81.026 7.56591 80.984 7.98439 80.6531 8.19887C77.2821 10.5331 73.5548 12.367 70.1391 14.6178C69.8092 14.826 69.351 14.7517 69.1079 14.4502C68.8935 14.1538 68.9353 13.7353 69.2652 13.5271Z" fill="#FFF1EE"/>
<path fill-rule="evenodd" clip-rule="evenodd" d="M65.5421 2.02939C65.1886 3.5857 64.8354 5.14204 64.4819 6.69862C64.4206 7.05845 64.0298 7.27777 63.6323 7.19205C63.2347 7.10606 63.001 6.75106 63.0623 6.39097C63.4162 4.83204 63.7699 3.27335 64.1237 1.71468C64.2136 1.35973 64.604 1.14221 65.0012 1.23002C65.3698 1.31296 65.6319 1.67469 65.5421 2.02939Z" fill="#FFF1EE"/>
<path fill-rule="evenodd" clip-rule="evenodd" d="M71.8184 20.2269C73.7444 20.0686 75.7172 20.1593 77.6287 20.2601C78.0402 20.2831 78.3715 20.6025 78.339 20.9675C78.3353 21.3376 77.9906 21.618 77.608 21.5999C75.7555 21.5008 73.843 21.4065 72.0066 21.562C71.6149 21.5968 71.2456 21.3248 71.1898 20.9556C71.134 20.5867 71.4267 20.262 71.8184 20.2269Z" fill="#FFB9AA"/>
<path fill-rule="evenodd" clip-rule="evenodd" d="M67.3663 12.5723C70.8076 10.3118 74.5631 8.4713 77.9594 6.12677C78.2641 5.90568 78.7279 5.97006 78.9741 6.26684C79.2202 6.56389 79.1779 6.98568 78.8443 7.20186C75.4467 9.55455 71.6898 11.403 68.2471 13.6716C67.9146 13.8815 67.4527 13.8066 67.2078 13.5027C66.9916 13.204 67.0338 12.7822 67.3663 12.5723Z" fill="#FFB9AA"/>
<path fill-rule="evenodd" clip-rule="evenodd" d="M63.6134 0.983566C63.2572 2.5522 62.9011 4.12087 62.5448 5.68977C62.483 6.05245 62.0891 6.27351 61.6885 6.18711C61.2878 6.10044 61.0522 5.74262 61.114 5.37968C61.4707 3.80841 61.8272 2.23738 62.1838 0.666371C62.2744 0.308602 62.6679 0.0893613 63.0682 0.17787C63.4397 0.261467 63.704 0.62606 63.6134 0.983566Z" fill="#FFB9AA"/>
</svg>
