<svg width="28" height="40" viewBox="0 0 28 40" fill="none" xmlns="http://www.w3.org/2000/svg">
<path fill-rule="evenodd" clip-rule="evenodd" d="M14 0C9.58169 0 5.99997 3.58172 5.99997 8V20C5.99997 24.4183 9.58169 28 14 28C18.4183 28 22 24.4183 22 20V8C22 3.58172 18.4183 0 14 0ZM2.00006 16.5C2.82849 16.5 3.50006 17.1716 3.50006 18V20C3.50006 25.799 8.20107 30.5 14.0001 30.5C19.7991 30.5 24.5001 25.799 24.5001 20V18C24.5001 17.1716 25.1716 16.5 26.0001 16.5C26.8285 16.5 27.5001 17.1716 27.5001 18V20C27.5001 26.9488 22.25 32.6714 15.5001 33.4176V37H20.0001C20.8285 37 21.5001 37.6716 21.5001 38.5C21.5001 39.3284 20.8285 40 20.0001 40H8.00006C7.17163 40 6.50006 39.3284 6.50006 38.5C6.50006 37.6716 7.17163 37 8.00006 37H12.5001V33.4176C5.75014 32.6714 0.500061 26.9488 0.500061 20V18C0.500061 17.1716 1.17163 16.5 2.00006 16.5Z" fill="white"/>
</svg>
