<svg width="53" height="53" viewBox="0 0 53 53" fill="none" xmlns="http://www.w3.org/2000/svg">
<path d="M53 26.5C53 41.1355 41.1355 53 26.5 53C11.8645 53 0 41.1355 0 26.5C0 11.8645 11.8645 0 26.5 0C41.1355 0 53 11.8645 53 26.5Z" fill="#D9D9D9"/>
<path d="M17.4143 15.1429C16.1598 15.1429 15.1429 16.1598 15.1429 17.4143V21.9571C15.1429 23.2116 16.1598 24.2286 17.4143 24.2286H21.9571C23.2116 24.2286 24.2286 23.2116 24.2286 21.9571V17.4143C24.2286 16.1598 23.2116 15.1429 21.9571 15.1429H17.4143Z" fill="#86898E"/>
<path d="M19.6857 37.8571C22.1947 37.8571 24.2286 35.8232 24.2286 33.3143C24.2286 30.8053 22.1947 28.7714 19.6857 28.7714C17.1768 28.7714 15.1429 30.8053 15.1429 33.3143C15.1429 35.8232 17.1768 37.8571 19.6857 37.8571Z" fill="#86898E"/>
<path d="M28.7714 31.0429C28.7714 29.7884 29.7884 28.7714 31.0429 28.7714H35.5857C36.8402 28.7714 37.8571 29.7884 37.8571 31.0429V35.5857C37.8571 36.8402 36.8402 37.8571 35.5857 37.8571H31.0429C29.7884 37.8571 28.7714 36.8402 28.7714 35.5857V31.0429Z" fill="#86898E"/>
<path d="M33.8821 15.9946C33.8821 15.5242 33.5008 15.1429 33.0304 15.1429C32.5599 15.1429 32.1786 15.5242 32.1786 15.9946V19.1179H29.0554C28.5849 19.1179 28.2036 19.4992 28.2036 19.9696C28.2036 20.4401 28.5849 20.8214 29.0554 20.8214H32.1786V23.9446C32.1786 24.4151 32.5599 24.7964 33.0304 24.7964C33.5008 24.7964 33.8821 24.4151 33.8821 23.9446V20.8214H37.0054C37.4758 20.8214 37.8571 20.4401 37.8571 19.9696C37.8571 19.4992 37.4758 19.1179 37.0054 19.1179H33.8821V15.9946Z" fill="#86898E"/>
</svg>
