<svg width="28" height="28" viewBox="0 0 28 28" fill="none" xmlns="http://www.w3.org/2000/svg">
<path d="M8.47607 7.64624C9.44557 7.64624 9.33576 6.77124 10.1167 6.77124C10.9331 6.77124 10.8478 7.64624 11.8129 7.64624C12.7824 7.64624 12.7684 6.77124 13.5714 6.77124C14.5416 6.77124 14.3613 7.64624 15.3313 7.64624C16.3012 7.64624 16.2883 6.77124 17.0999 6.77124C17.8637 6.77124 17.8672 7.63312 18.6786 7.63312V9.33346H15.6775L15.6522 8.35368L10.5365 8.40377L10.5546 9.33346H8.47651L8.47607 7.64624Z" fill="url(#paint0_linear_1_654)"/>
<path d="M14.3281 24.5013H22.0566C22.2464 24.5018 22.4295 24.4312 22.5698 24.3034C22.7101 24.1755 22.7974 23.9998 22.8145 23.8108C23.0604 20.9624 22.7122 15.1076 21.3132 11.5389C21.1619 11.1517 20.9234 8.29066 20.3392 7.07397C20.2903 6.99773 20.2258 6.93273 20.15 6.88328C20.0741 6.83383 19.9886 6.80106 19.8992 6.78714C19.8097 6.77322 19.7183 6.77847 19.631 6.80254C19.5437 6.82661 19.4625 6.86895 19.3928 6.92675C19.2386 7.0766 19.0078 7.44804 18.6272 7.44804L14.3281 24.5013Z" fill="url(#paint1_linear_1_654)"/>
<path d="M19.1953 7.33687C19.1758 7.23957 19.1362 7.1474 19.0791 7.06623C19.022 6.98507 18.9486 6.91669 18.8636 6.86545C18.7786 6.81421 18.6839 6.78123 18.5855 6.76861C18.487 6.756 18.387 6.76403 18.2919 6.79218C17.7078 6.95843 17.8128 7.69562 17.1938 7.69562C16.3384 7.69562 16.4675 6.77249 15.4438 6.77249C14.5775 6.77249 14.5513 7.69562 13.5275 7.69562C12.5038 7.69562 12.8078 6.77249 11.7841 6.77249C10.9506 6.77249 10.9616 7.69562 10.0647 7.69562C9.33625 7.69562 9.43032 6.90593 8.67782 6.77906C8.53738 6.76367 8.39598 6.79789 8.27813 6.8758C8.16027 6.95371 8.07338 7.07038 8.0325 7.20562C7.83125 7.91874 7.70438 9.27499 7.595 10.2134C7.5387 10.6927 7.39486 11.1576 7.17063 11.585C4.75563 16.2619 4.85188 21.7503 4.94594 23.7737C4.95548 23.9699 5.04004 24.1549 5.18213 24.2905C5.32422 24.4261 5.51298 24.5019 5.70938 24.5022H16.6556C16.7594 24.502 16.862 24.4807 16.9572 24.4395C17.0525 24.3982 17.1382 24.338 17.2093 24.2624C17.2804 24.1868 17.3353 24.0975 17.3706 23.9999C17.4059 23.9023 17.4209 23.7986 17.4147 23.695C17.2813 21.5228 17.0822 15.4459 18.6769 11.5828C18.8334 11.2114 18.9358 10.8195 18.9809 10.4191C19.0706 9.54843 19.2894 8.05874 19.1953 7.33687ZM15.19 9.77812C15.137 9.83157 15.074 9.87398 15.0045 9.90289C14.9351 9.9318 14.8606 9.94665 14.7853 9.94656H11.7425C11.5911 9.94644 11.446 9.88625 11.3389 9.7792C11.2319 9.67216 11.1717 9.527 11.1716 9.37562C11.1727 9.22453 11.2332 9.07994 11.34 8.97311C11.4468 8.86627 11.5914 8.80577 11.7425 8.80468H14.7853C14.8981 8.80462 15.0084 8.83799 15.1023 8.90058C15.1961 8.96316 15.2693 9.05215 15.3126 9.15631C15.3559 9.26047 15.3674 9.37513 15.3455 9.4858C15.3237 9.59647 15.2696 9.69819 15.19 9.77812Z" fill="url(#paint2_linear_1_654)"/>
<path d="M17.8543 11.3133H8.22213C8.14645 11.3133 8.07386 11.2832 8.02035 11.2297C7.96683 11.1762 7.93677 11.1036 7.93677 11.0279C7.93677 10.9522 7.96683 10.8796 8.02035 10.8261C8.07386 10.7726 8.14645 10.7426 8.22213 10.7426H17.8543C17.93 10.7426 18.0026 10.7726 18.0561 10.8261C18.1096 10.8796 18.1397 10.9522 18.1397 11.0279C18.1397 11.1036 18.1096 11.1762 18.0561 11.2297C18.0026 11.2832 17.93 11.3133 17.8543 11.3133Z" fill="url(#paint3_linear_1_654)"/>
<path d="M13.8622 2.03261C13.8797 2.05144 13.9009 2.06645 13.9245 2.07672C13.9481 2.08698 13.9736 2.09228 13.9993 2.09228C14.025 2.09228 14.0505 2.08698 14.0741 2.07672C14.0977 2.06645 14.1189 2.05144 14.1365 2.03261C14.6142 1.51942 15.6139 1.67714 15.9849 2.21155C16.6274 3.14277 16.1818 4.55655 14.1993 5.32502C14.0706 5.37424 13.9283 5.37424 13.7996 5.32502C11.8173 4.55655 11.3715 3.14277 12.017 2.21155C12.3852 1.67714 13.3846 1.51942 13.8622 2.03261Z" fill="url(#paint4_linear_1_654)"/>
<path d="M11.6311 17.7203C11.5662 17.7203 11.5027 17.7011 11.4488 17.665C11.3948 17.629 11.3527 17.5777 11.3278 17.5177C11.303 17.4578 11.2965 17.3918 11.3092 17.3281C11.3218 17.2644 11.3531 17.206 11.399 17.1601L11.8943 16.6648C11.9557 16.6031 12.0391 16.5684 12.1262 16.5682C12.2133 16.5681 12.2968 16.6025 12.3585 16.6639C12.4201 16.7254 12.4549 16.8088 12.455 16.8959C12.4552 16.9829 12.4208 17.0665 12.3593 17.1281L11.8641 17.6234C11.8336 17.6542 11.7973 17.6786 11.7573 17.6952C11.7173 17.7119 11.6744 17.7204 11.6311 17.7203Z" fill="url(#paint5_linear_1_654)"/>
<path d="M11.8193 17.2229C11.6947 17.0987 11.526 17.0289 11.3502 17.0289C11.1743 17.0289 11.0056 17.0987 10.881 17.2229L9.17261 18.9315C9.05065 19.0564 8.98285 19.2244 8.9839 19.399C8.98495 19.5736 9.05476 19.7407 9.17821 19.8641C9.30166 19.9876 9.46879 20.0574 9.64337 20.0584C9.81795 20.0595 9.9859 19.9917 10.1108 19.8697L11.8193 18.1611C11.9436 18.0366 12.0134 17.8679 12.0134 17.692C12.0134 17.5161 11.9436 17.3473 11.8193 17.2229Z" fill="url(#paint6_linear_1_654)"/>
<path d="M14.2562 15.6337C14.2105 15.6033 14.1556 15.5899 14.1011 15.5959C14.0466 15.602 13.9959 15.627 13.958 15.6667L13.4142 16.2105C13.3962 16.2285 13.3719 16.2386 13.3465 16.2386C13.321 16.2386 13.2967 16.2286 13.2787 16.2106C13.2607 16.1927 13.2506 16.1683 13.2506 16.1429C13.2505 16.1175 13.2606 16.0931 13.2786 16.0751L13.8344 15.5193C13.8765 15.4771 13.9002 15.42 13.9002 15.3604C13.9001 15.3008 13.8765 15.2436 13.8343 15.2015C13.7922 15.1594 13.735 15.1358 13.6754 15.1358C13.6158 15.1358 13.5587 15.1595 13.5166 15.2016L12.9609 15.7573C12.9521 15.7662 12.9415 15.7732 12.9299 15.7781C12.9183 15.7829 12.9058 15.7854 12.8932 15.7854C12.8806 15.7854 12.8682 15.7829 12.8565 15.7781C12.8449 15.7733 12.8343 15.7663 12.8254 15.7574C12.8165 15.7485 12.8095 15.7379 12.8046 15.7263C12.7998 15.7147 12.7973 15.7022 12.7973 15.6896C12.7973 15.677 12.7998 15.6646 12.8046 15.653C12.8094 15.6413 12.8164 15.6308 12.8253 15.6219L13.3691 15.0778C13.4088 15.0399 13.4339 14.9893 13.4399 14.9348C13.4459 14.8802 13.4326 14.8253 13.4022 14.7797C13.3832 14.7529 13.3586 14.7307 13.3302 14.7144C13.3017 14.6982 13.27 14.6884 13.2374 14.6856C13.2047 14.6829 13.1719 14.6873 13.1411 14.6985C13.1103 14.7098 13.0823 14.7276 13.0592 14.7508L11.856 15.9539C11.7837 16.0343 11.7279 16.1282 11.6919 16.2302C11.656 16.3322 11.6405 16.4403 11.6464 16.5483C11.6523 16.6563 11.6794 16.7621 11.7263 16.8596C11.7732 16.957 11.8388 17.0443 11.9195 17.1164C11.9915 17.197 12.0788 17.2627 12.1763 17.3096C12.2738 17.3564 12.3796 17.3836 12.4876 17.3895C12.5957 17.3954 12.7038 17.3799 12.8058 17.3439C12.9078 17.3079 13.0017 17.2521 13.0821 17.1798L14.2853 15.9767C14.3084 15.9535 14.3262 15.9255 14.3375 15.8947C14.3487 15.8639 14.3531 15.8311 14.3503 15.7984C14.3476 15.7658 14.3377 15.7341 14.3214 15.7056C14.3052 15.6772 14.2829 15.6526 14.2562 15.6337Z" fill="url(#paint7_linear_1_654)"/>
<path d="M11.0665 17.7216C10.9796 17.7216 10.8962 17.687 10.8347 17.6256L10.3151 17.1063C10.2838 17.076 10.2588 17.0398 10.2416 16.9997C10.2244 16.9597 10.2154 16.9167 10.215 16.8731C10.2146 16.8295 10.2229 16.7863 10.2394 16.746C10.2559 16.7057 10.2803 16.669 10.3111 16.6382C10.3419 16.6074 10.3785 16.583 10.4188 16.5665C10.4592 16.55 10.5024 16.5417 10.5459 16.5421C10.5895 16.5425 10.6326 16.5516 10.6726 16.5688C10.7126 16.586 10.7488 16.6109 10.7791 16.6423L11.2986 17.1618C11.3445 17.2077 11.3757 17.2662 11.3883 17.3298C11.401 17.3934 11.3944 17.4594 11.3696 17.5193C11.3448 17.5793 11.3027 17.6305 11.2488 17.6665C11.1948 17.7026 11.1314 17.7216 11.0665 17.7216Z" fill="url(#paint8_linear_1_654)"/>
<path d="M13.4873 18.8919L11.7628 17.1675C11.7015 17.1047 11.6283 17.0547 11.5475 17.0203C11.4667 16.986 11.3799 16.9681 11.2921 16.9675C11.2043 16.967 11.1173 16.9839 11.036 17.0173C10.9548 17.0506 10.881 17.0998 10.819 17.1619C10.7569 17.2239 10.7077 17.2977 10.6744 17.3789C10.641 17.4602 10.6241 17.5472 10.6246 17.635C10.6252 17.7228 10.6431 17.8096 10.6775 17.8904C10.7118 17.9712 10.7618 18.0444 10.8246 18.1057L12.549 19.8304C12.6107 19.892 12.6838 19.9408 12.7643 19.9742C12.8448 20.0075 12.9311 20.0247 13.0182 20.0247C13.1054 20.0246 13.1916 20.0075 13.2721 19.9741C13.3526 19.9408 13.4258 19.8919 13.4874 19.8303C13.549 19.7686 13.5978 19.6955 13.6312 19.615C13.6645 19.5345 13.6817 19.4482 13.6816 19.3611C13.6816 19.2739 13.6645 19.1877 13.6311 19.1072C13.5978 19.0267 13.5489 18.9535 13.4873 18.8919Z" fill="url(#paint9_linear_1_654)"/>
<path d="M10.3981 17.2375C10.5216 17.2055 10.6344 17.141 10.7246 17.0508C10.8148 16.9605 10.8793 16.8478 10.9113 16.7243C10.9802 16.4709 10.9777 16.2034 10.9041 15.9513C10.8306 15.6992 10.6889 15.4723 10.4946 15.2956C10.2896 15.101 10.0399 14.9597 9.76745 14.8842C9.59994 14.8387 9.4234 14.8383 9.25568 14.8829C9.08795 14.9276 8.93499 15.0157 8.81226 15.1384C8.68953 15.2612 8.60138 15.4141 8.55673 15.5818C8.51208 15.7496 8.51251 15.9261 8.55798 16.0936C8.63316 16.3664 8.77424 16.6164 8.96879 16.8218C9.14562 17.0161 9.37267 17.1577 9.62489 17.231C9.87711 17.3044 10.1447 17.3066 10.3981 17.2375Z" fill="url(#paint10_linear_1_654)"/>
<defs>
<linearGradient id="paint0_linear_1_654" x1="13.5778" y1="5.07155" x2="13.5778" y2="11.9224" gradientUnits="userSpaceOnUse">
<stop stop-color="#FFC988"/>
<stop offset="0.145" stop-color="#FCC283"/>
<stop offset="0.354" stop-color="#F5AF77"/>
<stop offset="0.602" stop-color="#E99062"/>
<stop offset="0.877" stop-color="#D96545"/>
<stop offset="1" stop-color="#D14F36"/>
</linearGradient>
<linearGradient id="paint1_linear_1_654" x1="16.1634" y1="-0.669339" x2="19.3981" y2="29.5831" gradientUnits="userSpaceOnUse">
<stop stop-color="#FFC988"/>
<stop offset="0.145" stop-color="#FCC283"/>
<stop offset="0.354" stop-color="#F5AF77"/>
<stop offset="0.602" stop-color="#E99062"/>
<stop offset="0.877" stop-color="#D96545"/>
<stop offset="1" stop-color="#D14F36"/>
</linearGradient>
<linearGradient id="paint2_linear_1_654" x1="12.0638" y1="3.57349" x2="12.0638" y2="37.5729" gradientUnits="userSpaceOnUse">
<stop stop-color="#FFC988"/>
<stop offset="0.145" stop-color="#FCC283"/>
<stop offset="0.354" stop-color="#F5AF77"/>
<stop offset="0.602" stop-color="#E99062"/>
<stop offset="0.877" stop-color="#D96545"/>
<stop offset="1" stop-color="#D14F36"/>
</linearGradient>
<linearGradient id="paint3_linear_1_654" x1="13.0381" y1="5.44422" x2="13.0381" y2="16.0087" gradientUnits="userSpaceOnUse">
<stop stop-color="#FFC988"/>
<stop offset="0.145" stop-color="#FCC283"/>
<stop offset="0.354" stop-color="#F5AF77"/>
<stop offset="0.602" stop-color="#E99062"/>
<stop offset="0.877" stop-color="#D96545"/>
<stop offset="1" stop-color="#D14F36"/>
</linearGradient>
<linearGradient id="paint4_linear_1_654" x1="14" y1="-1.28517" x2="14" y2="5.0483" gradientUnits="userSpaceOnUse">
<stop stop-color="#FFB8AE"/>
<stop offset="0.665" stop-color="#FF759A"/>
<stop offset="1" stop-color="#FF5991"/>
</linearGradient>
<linearGradient id="paint5_linear_1_654" x1="11.8672" y1="17.1113" x2="12.4073" y2="18.6767" gradientUnits="userSpaceOnUse">
<stop stop-color="#FFD3BD"/>
<stop offset="1" stop-color="white"/>
</linearGradient>
<linearGradient id="paint6_linear_1_654" x1="13.5743" y1="14.7326" x2="8.68895" y2="20.7848" gradientUnits="userSpaceOnUse">
<stop stop-color="#FFC988"/>
<stop offset="0.145" stop-color="#FCC283"/>
<stop offset="0.354" stop-color="#F5AF77"/>
<stop offset="0.602" stop-color="#E99062"/>
<stop offset="0.877" stop-color="#D96545"/>
<stop offset="1" stop-color="#D14F36"/>
</linearGradient>
<linearGradient id="paint7_linear_1_654" x1="11.7233" y1="17.2308" x2="15.3191" y2="13.8539" gradientUnits="userSpaceOnUse">
<stop stop-color="#FFD3BD"/>
<stop offset="1" stop-color="white"/>
</linearGradient>
<linearGradient id="paint8_linear_1_654" x1="10.9128" y1="17.4405" x2="11.4526" y2="19.0059" gradientUnits="userSpaceOnUse">
<stop stop-color="#FFD3BD"/>
<stop offset="1" stop-color="white"/>
</linearGradient>
<linearGradient id="paint9_linear_1_654" x1="9.90872" y1="14.2892" x2="13.7915" y2="21.5627" gradientUnits="userSpaceOnUse">
<stop stop-color="#FFC988"/>
<stop offset="0.145" stop-color="#FCC283"/>
<stop offset="0.354" stop-color="#F5AF77"/>
<stop offset="0.602" stop-color="#E99062"/>
<stop offset="0.877" stop-color="#D96545"/>
<stop offset="1" stop-color="#D14F36"/>
</linearGradient>
<linearGradient id="paint10_linear_1_654" x1="10.7656" y1="17.4667" x2="7.53904" y2="13.0508" gradientUnits="userSpaceOnUse">
<stop stop-color="#FFD3BD"/>
<stop offset="1" stop-color="white"/>
</linearGradient>
</defs>
</svg>
