<svg width="29" height="28" viewBox="0 0 29 28" fill="none" xmlns="http://www.w3.org/2000/svg">
<path d="M23.0605 6.90399L25.8646 4.08936C26.0601 3.89312 26.1673 3.63306 26.1673 3.35762C26.1673 3.08219 26.0601 2.82212 25.8646 2.62589C25.4748 2.23579 24.7976 2.23579 24.4078 2.62589L21.6036 5.44171L18.7984 2.62589C18.4085 2.23579 17.7314 2.23579 17.3415 2.62589C17.1472 2.82212 17.04 3.08219 17.04 3.35762C17.04 3.63306 17.1472 3.89312 17.3415 4.08936L20.1456 6.90399L17.3415 9.71863C17.1472 9.91486 17.04 10.1749 17.04 10.4504C17.04 10.7258 17.1472 10.9859 17.3415 11.1821C17.7314 11.5722 18.4085 11.5722 18.7984 11.1821L21.6036 8.36628L24.4078 11.1821C24.6033 11.3771 24.8612 11.4847 25.1368 11.4847C25.4123 11.4847 25.6703 11.3771 25.8646 11.1821C26.0601 10.9859 26.1673 10.7258 26.1673 10.4504C26.1673 10.1749 26.0601 9.91486 25.8646 9.71863L23.0605 6.90399Z" fill="white"/>
<path fill-rule="evenodd" clip-rule="evenodd" d="M13.3705 15.1345C18.0245 19.7871 19.0802 14.4045 22.0434 17.3656C24.9002 20.2215 26.5421 20.7937 22.9226 24.4122C22.4692 24.7765 19.5887 29.16 9.46553 19.0396C-0.658895 8.918 3.72201 6.03452 4.08646 5.58127C7.71467 1.95282 8.277 3.60428 11.1337 6.46022C14.0969 9.42258 8.7166 10.4818 13.3705 15.1345Z" fill="white"/>
</svg>
