<svg width="9" height="11" viewBox="0 0 9 11" fill="none" xmlns="http://www.w3.org/2000/svg">
<path d="M0.5 1.99476C0.5 1.50917 0.5 1.26638 0.601245 1.13255C0.689447 1.01595 0.824261 0.943803 0.970199 0.935089C1.13772 0.925087 1.33973 1.05976 1.74376 1.32912L7.00154 4.8343C7.33538 5.05686 7.5023 5.16815 7.56047 5.30841C7.61133 5.43103 7.61133 5.56885 7.56047 5.69148C7.5023 5.83174 7.33538 5.94302 7.00154 6.16558L1.74376 9.67077C1.33973 9.94012 1.13772 10.0748 0.970199 10.0648C0.824261 10.0561 0.689447 9.98393 0.601245 9.86734C0.5 9.7335 0.5 9.49071 0.5 9.00513V1.99476Z" stroke="white" stroke-linecap="round" stroke-linejoin="round"/>
</svg>
