<svg width="20" height="19" viewBox="0 0 20 19" fill="none" xmlns="http://www.w3.org/2000/svg">
<path fill-rule="evenodd" clip-rule="evenodd" d="M15.9412 8.46987C15.9412 12.3891 12.7641 15.5662 8.84487 15.5662C4.92565 15.5662 1.74849 12.3891 1.74849 8.46987C1.74849 4.55065 4.92565 1.37349 8.84487 1.37349C12.7641 1.37349 15.9412 4.55065 15.9412 8.46987ZM8.84487 16.9397C13.5226 16.9397 17.3147 13.1476 17.3147 8.46987C17.3147 3.79209 13.5226 0 8.84487 0C4.16709 0 0.375 3.79209 0.375 8.46987C0.375 13.1476 4.16709 16.9397 8.84487 16.9397ZM18.8454 18.4704C18.1394 19.1765 16.9946 19.1765 16.2885 18.4704L14.5736 16.7555C15.5718 16.064 16.439 15.1968 17.1305 14.1986L18.8454 15.9135C19.5515 16.6196 19.5515 17.7643 18.8454 18.4704Z" fill="#F35C6E"/>
</svg>
