<svg width="24" height="24" viewBox="0 0 24 24" fill="none" xmlns="http://www.w3.org/2000/svg">
<path fill-rule="evenodd" clip-rule="evenodd" d="M8.91378 14.5538L13.344 10.1228C13.6365 9.83025 14.112 9.83025 14.4045 10.1228C14.697 10.416 14.697 10.8908 14.4045 11.184L9.97428 15.6143L13.452 22.1835C13.7325 22.7138 14.3033 23.0258 14.901 22.9763C15.4995 22.9268 16.011 22.5255 16.2008 21.9555C17.5208 17.9962 20.8313 8.06401 22.0665 4.35901C22.2458 3.81976 22.1055 3.22576 21.7043 2.82376C21.3023 2.42176 20.7083 2.28151 20.169 2.46151L2.57178 8.32726C2.00253 8.51701 1.60128 9.02776 1.55103 9.62626C1.50153 10.2248 1.81354 10.7948 2.34454 11.076L8.91378 14.5538Z" fill="white"/>
</svg>
