<svg width="22" height="22" viewBox="0 0 22 22" fill="none" xmlns="http://www.w3.org/2000/svg">
<path d="M18.9436 11V17C18.9436 19.2091 17.1527 21 14.9436 21H6.94357C4.73443 21 2.94357 19.2091 2.94357 17V11" stroke="white"/>
<path d="M15.7123 1H6.17482C4.35747 1 2.72321 2.24476 2.04826 4.14305L1.29028 6.27487C1.06083 6.92019 0.902227 7.61074 1.06958 8.27488C1.46593 9.84776 2.7518 11 4.2769 11C6.11785 11 7.61023 9.32107 7.61023 7.25C7.61023 9.32107 9.10262 11 10.9436 11C12.7845 11 14.2769 9.32107 14.2769 7.25C14.2769 9.32107 15.7693 11 17.6102 11C19.1353 11 20.4212 9.84776 20.8176 8.27488C20.9849 7.61074 20.8263 6.92019 20.5969 6.27487L19.8389 4.14305C19.1639 2.24475 17.5297 1 15.7123 1Z" stroke="white" stroke-linejoin="round"/>
<path d="M7.94357 16C10.2997 17.3404 11.5911 17.3263 13.9436 16" stroke="white" stroke-linecap="round" stroke-linejoin="round"/>
</svg>
