<svg width="24" height="24" viewBox="0 0 24 24" fill="none" xmlns="http://www.w3.org/2000/svg">
<path d="M21.72 9.68995C21.6546 9.48946 21.5275 9.31477 21.3569 9.19085C21.1863 9.06692 20.9809 9.00011 20.77 8.99995H14.77L13 3.31995C12.9342 3.11988 12.807 2.94568 12.6364 2.82219C12.4658 2.69869 12.2606 2.6322 12.05 2.6322C11.8394 2.6322 11.6342 2.69869 11.4636 2.82219C11.293 2.94568 11.1658 3.11988 11.1 3.31995L9.19999 8.99995H3.19999C2.98068 8.98922 2.76393 9.05097 2.58319 9.17568C2.40246 9.30038 2.2678 9.4811 2.19999 9.68995C2.13394 9.89073 2.1332 10.1073 2.19787 10.3085C2.26255 10.5097 2.38933 10.6853 2.55999 10.81L7.39999 14.32L5.62999 20C5.56497 20.2018 5.56577 20.419 5.63228 20.6203C5.69879 20.8216 5.82756 20.9966 5.99999 21.12C6.17126 21.2451 6.37788 21.3125 6.58999 21.3125C6.80211 21.3125 7.00873 21.2451 7.17999 21.12L12 17.61L16.83 21.12C17.0013 21.2451 17.2079 21.3125 17.42 21.3125C17.6321 21.3125 17.8387 21.2451 18.01 21.12C18.1807 20.9953 18.3074 20.8197 18.3721 20.6185C18.4368 20.4173 18.4361 20.2007 18.37 20L16.53 14.32L21.36 10.81C21.5307 10.6853 21.6574 10.5097 21.7221 10.3085C21.7868 10.1073 21.7861 9.89073 21.72 9.68995Z" fill="white"/>
</svg>
