<svg width="18" height="25" viewBox="0 0 18 25" fill="none" xmlns="http://www.w3.org/2000/svg">
<path fill-rule="evenodd" clip-rule="evenodd" d="M8.81855 23.272C4.51143 23.272 0.833252 22.6018 0.833252 19.9175C0.833252 17.2333 4.4881 14.7554 8.81855 14.7554C13.1257 14.7554 16.8039 17.2093 16.8039 19.8935C16.8039 22.5767 13.149 23.272 8.81855 23.272Z" stroke="#212121" stroke-width="1.5" stroke-linecap="round" stroke-linejoin="round"/>
<path fill-rule="evenodd" clip-rule="evenodd" d="M8.81017 11.0357C11.6367 11.0357 13.9276 8.7448 13.9276 5.91829C13.9276 3.09177 11.6367 0.799805 8.81017 0.799805C5.98365 0.799805 3.69168 3.09177 3.69168 5.91829C3.68213 8.73526 5.95713 11.0262 8.7741 11.0357C8.78683 11.0357 8.7985 11.0357 8.81017 11.0357Z" stroke="#212121" stroke-width="1.5" stroke-linecap="round" stroke-linejoin="round"/>
</svg>
