<svg width="25" height="24" viewBox="0 0 25 24" fill="none" xmlns="http://www.w3.org/2000/svg">
<path d="M9.75 12C10.64 12 11.51 11.7361 12.2501 11.2416C12.9901 10.7471 13.5669 10.0443 13.9075 9.22208C14.2481 8.39981 14.3372 7.49501 14.1635 6.6221C13.9899 5.74918 13.5613 4.94736 12.932 4.31802C12.3026 3.68869 11.5008 3.2601 10.6279 3.08647C9.75499 2.91283 8.85019 3.00195 8.02792 3.34254C7.20566 3.68314 6.50285 4.25991 6.00839 4.99994C5.51392 5.73996 5.25 6.60999 5.25 7.5C5.25119 8.69311 5.72568 9.83701 6.56934 10.6807C7.41299 11.5243 8.55689 11.9988 9.75 12ZM9.75 4.5C10.3433 4.5 10.9234 4.67595 11.4167 5.00559C11.9101 5.33524 12.2946 5.80377 12.5216 6.35195C12.7487 6.90013 12.8081 7.50333 12.6924 8.08527C12.5766 8.66722 12.2909 9.20176 11.8713 9.62132C11.4518 10.0409 10.9172 10.3266 10.3353 10.4424C9.75333 10.5581 9.15013 10.4987 8.60195 10.2716C8.05377 10.0446 7.58524 9.66006 7.25559 9.16671C6.92595 8.67336 6.75 8.09335 6.75 7.5C6.75 6.70435 7.06607 5.94129 7.62868 5.37868C8.19129 4.81607 8.95435 4.5 9.75 4.5V4.5ZM16.5 20.25C16.5 20.4489 16.421 20.6397 16.2803 20.7803C16.1397 20.921 15.9489 21 15.75 21C15.5511 21 15.3603 20.921 15.2197 20.7803C15.079 20.6397 15 20.4489 15 20.25C15 18.8576 14.4469 17.5223 13.4623 16.5377C12.4777 15.5531 11.1424 15 9.75 15C8.35761 15 7.02226 15.5531 6.03769 16.5377C5.05312 17.5223 4.5 18.8576 4.5 20.25C4.5 20.4489 4.42098 20.6397 4.28033 20.7803C4.13968 20.921 3.94891 21 3.75 21C3.55109 21 3.36032 20.921 3.21967 20.7803C3.07902 20.6397 3 20.4489 3 20.25C3 18.4598 3.71116 16.7429 4.97703 15.477C6.2429 14.2112 7.95979 13.5 9.75 13.5C11.5402 13.5 13.2571 14.2112 14.523 15.477C15.7888 16.7429 16.5 18.4598 16.5 20.25V20.25ZM20.7803 13.7198C20.8519 13.7889 20.909 13.8717 20.9483 13.9632C20.9876 14.0547 21.0083 14.1531 21.0092 14.2527C21.0101 14.3523 20.9911 14.451 20.9534 14.5432C20.9157 14.6354 20.86 14.7191 20.7895 14.7895C20.7191 14.86 20.6354 14.9157 20.5432 14.9534C20.451 14.9911 20.3523 15.0101 20.2527 15.0092C20.1531 15.0083 20.0547 14.9876 19.9632 14.9483C19.8717 14.909 19.7889 14.8519 19.7197 14.7803L18.375 13.4355L17.0303 14.7803C16.8888 14.9169 16.6993 14.9925 16.5027 14.9908C16.3061 14.989 16.1179 14.9102 15.9789 14.7711C15.8398 14.6321 15.761 14.4439 15.7592 14.2473C15.7575 14.0507 15.8331 13.8612 15.9697 13.7198L17.3145 12.375L15.9697 11.0303C15.8331 10.8888 15.7575 10.6993 15.7592 10.5027C15.761 10.3061 15.8398 10.1179 15.9789 9.97889C16.1179 9.83983 16.3061 9.76096 16.5027 9.75925C16.6993 9.75754 16.8888 9.83313 17.0303 9.96975L18.375 11.3145L19.7197 9.96975C19.8612 9.83313 20.0507 9.75754 20.2473 9.75925C20.4439 9.76096 20.6321 9.83983 20.7711 9.97889C20.9102 10.1179 20.989 10.3061 20.9908 10.5027C20.9925 10.6993 20.9169 10.8888 20.7803 11.0303L19.4355 12.375L20.7803 13.7198Z" fill="#374957"/>
</svg>
