<svg width="24" height="23" viewBox="0 0 24 23" fill="none" xmlns="http://www.w3.org/2000/svg">
<path d="M5.71955 11.6083C8.87837 11.6083 11.4391 9.00971 11.4391 5.80416C11.4391 2.59861 8.87837 0 5.71955 0C2.56073 0 0 2.59861 0 5.80416C0 9.00971 2.56073 11.6083 5.71955 11.6083Z" fill="white"/>
<path d="M18.2805 11.6083C21.4393 11.6083 24 9.00971 24 5.80416C24 2.59861 21.4393 0 18.2805 0C15.1216 0 12.5609 2.59861 12.5609 5.80416C12.5609 9.00971 15.1216 11.6083 18.2805 11.6083Z" fill="white"/>
<path d="M20.1541 16.9998C19.8891 16.8622 19.5747 16.8215 19.2789 16.8903C18.9831 16.9591 18.7304 17.128 18.5732 17.3625C17.0139 19.5109 14.3698 20.8494 11.4916 20.9495C11.1033 20.937 10.7181 20.8994 10.339 20.8369V17.3719C10.3421 16.4212 9.91683 15.5112 9.15874 14.8388C8.40066 14.1665 7.37447 13.7881 6.29897 13.7881C3.86446 13.7881 1.57787 15.9553 2.51778 18.2757C3.72271 21.2528 8.32978 23.0729 11.4916 22.9978C13.3128 22.954 15.0971 22.5131 16.6811 21.7094C18.265 20.9088 19.5994 19.7705 20.567 18.4008C20.7211 18.1662 20.7643 17.8879 20.6872 17.6283C20.6102 17.3594 20.4191 17.1342 20.1541 16.9998Z" fill="white"/>
</svg>
